<?xml version="1.0" encoding="utf-8"?>
<!-- Generator: Adobe Illustrator 27.5.0, SVG Export Plug-In . SVG Version: 6.00 Build 0)  -->
<svg version="1.1" xmlns="http://www.w3.org/2000/svg" xmlns:xlink="http://www.w3.org/1999/xlink" x="0px" y="0px"
	 viewBox="0 0 3710 3710" style="enable-background:new 0 0 3710 3710;" xml:space="preserve">
<g id="Background">
	<g>
		<g>
			<rect style="fill:#FFFFFF;" width="3710" height="3710"/>
		</g>
	</g>
</g>
<g id="Illustration">
	<g>
		<path style="fill:#F4F7FA;" d="M1837.975,3125.818c299.523-124.042,324.035-430.615,594.879-460.735
			c235.996-26.245,328.963,194.105,494.219,152.044c251.733-64.072,402.003-668.526,293.537-1162.25
			C3108.612,1145.073,2658.858,471.62,1929.063,435.573c-819.35-40.471-1427.668,750.357-1455.757,1437.186
			c-3.037,74.277-18.375,696.486,462.259,1057.099C959.582,2947.876,1433.065,3293.503,1837.975,3125.818z"/>
		<g>
			<g>
				<defs>
					<path id="SVGID_1_" d="M1461.38,3073.295l-173.093-143.26c0,0,40.906-115.761,135.188-143.317
						c192.364-56.223,129.696-220.777,113.759-293.626c-24.035-109.862,2.698-217.157,130.689-167.57
						c127.99,49.587,155.855-189.314,91.469-361.146c-63.007-168.149,199.541-377.179,369.327-25.762
						c101.396,209.865-67.435,361.795-134.453,458.788c-67.018,96.992,61.355,215.854-76.182,288.269
						c-117.482,61.855-249.205,68.837-245.885,180.958C1675.519,2978.75,1621.185,3056.411,1461.38,3073.295z"/>
				</defs>
				<clipPath id="SVGID_00000171712797357749355900000007908134225102945974_">
					<use xlink:href="#SVGID_1_"  style="overflow:visible;"/>
				</clipPath>
				
					<linearGradient id="SVGID_00000016063385031468881190000006740311522380051087_" gradientUnits="userSpaceOnUse" x1="-1724.3826" y1="3377.9824" x2="-2171.7048" y2="4649.3203" gradientTransform="matrix(-0.7704 -0.6375 -0.6375 0.7704 2813.7717 -1889.3982)">
					<stop  offset="0" style="stop-color:#FFC444"/>
					<stop  offset="0.9964" style="stop-color:#F36F56"/>
				</linearGradient>
				
					<path style="clip-path:url(#SVGID_00000171712797357749355900000007908134225102945974_);fill:url(#SVGID_00000016063385031468881190000006740311522380051087_);" d="
					M1461.38,3073.295l-173.093-143.26c0,0,40.906-115.761,135.188-143.317c192.364-56.223,129.696-220.777,113.759-293.626
					c-24.035-109.862,2.999-203.733,122.084-180.581c134.738,26.196,164.46-176.303,100.074-348.135
					c-63.007-168.149,199.541-377.179,369.327-25.762c101.396,209.865-67.435,361.795-134.453,458.788
					c-67.018,96.992,61.355,215.854-76.182,288.269c-117.482,61.855-249.205,68.837-245.885,180.958
					C1675.519,2978.75,1621.185,3056.411,1461.38,3073.295z"/>
				<g style="opacity:0.5;clip-path:url(#SVGID_00000171712797357749355900000007908134225102945974_);">
					<path style="fill:#BEB8F2;" d="M1373.169,3027.357l-3.05-3.634c2.251-1.888,226.894-191.771,392.832-447.158
						c152.875-235.279,285.754-575.918,50.643-862.598l3.667-3.008c104.661,127.616,146.362,276.34,123.946,442.043
						c-17.906,132.368-76.559,275.772-174.33,426.229C1600.545,2835.189,1375.423,3025.463,1373.169,3027.357z"/>
					<path style="fill:#BEB8F2;" d="M1928.85,2221.84l-3.252-3.455c114.915-108.255,210.827-317.75,211.783-319.853l4.32,1.96
						C2140.74,1902.604,2044.439,2112.95,1928.85,2221.84z"/>
					<path style="fill:#BEB8F2;" d="M1940.759,2111.023c-59.579-178.45-204.943-236.796-206.404-237.363l1.718-4.42
						c1.484,0.575,148.875,59.644,209.186,240.281L1940.759,2111.023z"/>
					<path style="fill:#BEB8F2;" d="M1645.37,2737.617c101.733-206.099-97.616-442.285-99.75-444.423l3.128-3.56
						c2.293,1.9,203.512,242.154,100.875,450.083L1645.37,2737.617z"/>
					<path style="fill:#BEB8F2;" d="M1706.918,2665.548l-2.962-3.708c114.56-91.576,297.547-68.38,299.384-68.135l-0.627,4.701
						C2000.895,2598.165,1819.877,2575.247,1706.918,2665.548z"/>
					<path style="fill:#BEB8F2;" d="M1404.811,2993.065c50.23-71.417-1.563-203.751-2.091-205.08l4.405-1.754
						c2.2,5.518,53.278,136.039,1.565,209.563L1404.811,2993.065z"/>
					<path style="fill:#BEB8F2;" d="M1458.613,2948.814l-3.092-3.597c52.34-45.016,179.918-37.832,221.841-35.471
						c5.925,0.333,11.038,0.621,11.96,0.493l0.72,4.688c-1.297,0.2-4.697,0.018-12.947-0.446
						C1635.645,2912.148,1509.504,2905.045,1458.613,2948.814z"/>
				</g>
			</g>
			<g>
				
					<linearGradient id="SVGID_00000183222469789065499740000016396420406801383865_" gradientUnits="userSpaceOnUse" x1="4458.0488" y1="2463.0562" x2="4929.2378" y2="3701.145" gradientTransform="matrix(-0.3809 0.9246 0.9246 0.3809 -180.1301 -2865.9626)">
					<stop  offset="0" style="stop-color:#AA80F9"/>
					<stop  offset="0.9964" style="stop-color:#6165D7"/>
				</linearGradient>
				<path style="fill:url(#SVGID_00000183222469789065499740000016396420406801383865_);" d="M1197.427,2723.136
					c50.302-7.338,86.077,26.579,108.121,55.179c-1.598,4.616-1.34,7.679-1.916,12.676c-5.205,45.104-17.036,63.237-29.186,106.885
					c-2.615,9.395-18.677,34.636-25.902,44.528l-13.765,18.227c0,0-116.973,2.581-125.77-63.421
					c-8.797-66.002-120.203-77.645-178.461-91.086c-35.775-8.254-49.492-23.489-62.151-28.632
					c-133.998-54.443-188.484-26.965-221.182-71.437c-36.096-49.093,19.972-96.631-16.473-152.111
					c-41.155-62.647-140.279-44.091-165.977-112.078c-4.406-11.656-8.616-23.753-7.917-40.36
					c1.726-40.992,33.729-63.911,12.086-100.922c-43.505-74.392-34.943-169.651,48.001-201.399
					c81.861-31.333,186.302,72.322,232.932,261.496c48.501,130.752,73.364,140.55,138.169,152.328
					c45.391,8.252,173.926,0.552,196.964,77.741C1108.041,2667.94,1139.922,2731.526,1197.427,2723.136z"/>
				<g>
					<defs>
						<path id="SVGID_00000140707057210835078660000018427147370913675140_" d="M1331.023,2816.87l-91.247,141.553
							c0,0-121.969,4.789-130.767-61.213c-8.797-66.002-120.202-77.644-178.461-91.086
							c-158.072-36.47-81.882-208.564-280.341-272.613c-52.784-17.035-160.085-30.735-185.442-91.645
							c-28.889-69.393,32.003-93.684,4.168-141.281c-43.504-74.391-34.942-169.651,48.001-201.398
							c81.862-31.334,186.302,72.321,232.933,261.495c48.501,130.754,73.364,140.55,138.169,152.329
							c45.392,8.251,173.927,0.553,196.965,77.741c23.038,77.188,54.92,140.773,112.424,132.384
							C1284.927,2710.372,1331.023,2816.87,1331.023,2816.87z"/>
					</defs>
					<clipPath id="SVGID_00000088096629466517725630000015731117127405100475_">
						<use xlink:href="#SVGID_00000140707057210835078660000018427147370913675140_"  style="overflow:visible;"/>
					</clipPath>
					<g style="opacity:0.5;clip-path:url(#SVGID_00000088096629466517725630000015731117127405100475_);">
						<path style="fill:#FCFDFE;" d="M1283.9,2876.156l-1.465,3c-16.64-7.93-33.314-16.15-49.559-24.428
							c-120.274-61.306-229.95-132.481-325.984-211.552c-81.371-67-154.11-140.592-216.193-218.731
							c-49.928-62.839-93.267-128.948-128.814-196.49c-24.988-47.482-45.898-95.176-62.144-141.758
							c-2.833-8.118-5.282-16.614-7.651-24.831c-3.156-10.948-6.419-22.269-10.616-32.778l2.924-1.424
							c4.255,10.654,7.54,22.051,10.718,33.072c2.357,8.177,4.795,16.631,7.598,24.666c16.195,46.436,37.042,93.988,61.96,141.335
							c35.458,67.375,78.696,133.326,128.508,196.021c61.956,77.979,134.549,151.423,215.764,218.293
							c95.871,78.938,205.373,149.999,325.461,211.208C1250.63,2860.028,1267.28,2868.235,1283.9,2876.156z"/>
						<path style="fill:#FCFDFE;" d="M772.693,2513.797l-2.256,2.443c-94.533-94.191-324.22-112.052-326.528-112.221l0.425-3.276
							C446.653,2400.913,677.403,2418.852,772.693,2513.797z"/>
						<path style="fill:#FCFDFE;" d="M1060.893,2751.586l-1.985,2.681c-71.947-55.679-77.674-239.983-77.724-241.838l3.153-0.305
							C984.387,2513.963,990.07,2696.778,1060.893,2751.586z"/>
						<path style="fill:#FCFDFE;" d="M1104.576,2779.317l-1.522,2.972c-52.956-26.686-140.754-32.626-247.218-16.725
							c-5.354,0.799-5.354,0.799-5.882,0.543l1.487-2.99l-0.743,1.495l0.168-1.634c0.359-0.011,2.381-0.312,4.724-0.664
							C962.661,2746.324,1051.085,2752.361,1104.576,2779.317z"/>
						<path style="fill:#FCFDFE;" d="M1253.757,2861.221l-2.247,2.45c-46.698-46.129-35.352-148.816-35.233-149.847l3.131,0.182
							C1219.289,2715.022,1208.129,2816.148,1253.757,2861.221z"/>
						<path style="fill:#FCFDFE;" d="M1282.455,2880.98c-53.199-3.926-110.224,8.03-174.332,36.551l-1.076-3.008
							c64.601-28.738,122.117-40.781,175.835-36.817L1282.455,2880.98z"/>
						<path style="fill:#FCFDFE;" d="M586.261,2265.614l-2.376,2.314c-49.557-55.616-114.784-101.215-136.218-116.199
							c-5.189-3.627-7.01-4.91-7.563-5.478l2.288-2.41c0.428,0.427,3.393,2.5,7.149,5.125
							C471.043,2163.999,536.477,2209.744,586.261,2265.614z"/>
						<path style="fill:#FCFDFE;" d="M653.181,2369.352l-2.881,1.527c-28.73-65.126,22.396-205.499,24.587-211.443l2.935,0.999
							C677.291,2161.877,624.987,2305.443,653.181,2369.352z"/>
					</g>
				</g>
			</g>
			<g>
				
					<linearGradient id="SVGID_00000134930560705794769340000009309800589805086343_" gradientUnits="userSpaceOnUse" x1="9575.3301" y1="2449.1868" x2="10209.666" y2="3493.4661" gradientTransform="matrix(-0.4759 0.8795 0.8795 0.4759 2967.9529 -7886.7905)">
					<stop  offset="0" style="stop-color:#FF9085"/>
					<stop  offset="1" style="stop-color:#FB6FBB"/>
				</linearGradient>
				<path style="fill:url(#SVGID_00000134930560705794769340000009309800589805086343_);" d="M1382.544,2623.665
					c-6.717,9.391-52.328-30.56-134.744-37.17c-20.59-1.652-132.27-18.449-175.217,54.802
					c-8.337,14.219-16.675,28.438-25.012,42.657c-39.296-5.098-75.388-17.184-64.127-67.902
					c17.49-78.762-96.487-140.343-147.276-142.742c-62.861-2.97-208.928-12.961-183.748-135.055
					c20.962-101.643,54.654-163.994-49.745-226.331c-104.401-62.338-138.275-159.123-76.489-258.347
					c65.021-104.418-24.036-264.306,69.481-328.859c162.953-112.476,324.969,150.936,292.561,374.193
					c-32.406,223.256,89.946,149.313,180.83,190.239c8.221,4.277,20.637,11.543,33.664,22.899
					c80.2,69.922,44.487,173.76,82.476,282.308C1237.005,2542.395,1393.861,2607.845,1382.544,2623.665z"/>
				<g>
					<defs>
						<path id="SVGID_00000098922074204646579780000015517635590322789010_" d="M1206.493,2455.167l-128.745,234.263
							c-39.068-3.155-106.883-16.725-94.303-73.377c17.489-78.763-96.488-140.344-147.277-142.743
							c-62.861-2.969-208.928-12.961-183.749-135.055c20.962-101.643,54.655-163.992-49.745-226.33
							c-104.4-62.338-138.274-159.124-76.488-258.348c65.02-104.418-24.038-264.306,69.481-328.857
							c162.952-112.477,324.967,150.935,292.561,374.191c-32.406,223.257,89.946,149.314,180.83,190.24
							c124.076,55.873,6.129,213.28,29.047,283.062C1116.071,2426.918,1170.761,2447.033,1206.493,2455.167z"/>
					</defs>
					<clipPath id="SVGID_00000146463633488765354150000014576025125218333318_">
						<use xlink:href="#SVGID_00000098922074204646579780000015517635590322789010_"  style="overflow:visible;"/>
					</clipPath>
					<g style="opacity:0.5;clip-path:url(#SVGID_00000146463633488765354150000014576025125218333318_);">
						<path style="fill:#FCFDFE;" d="M1110.794,2546.802l-3.67,4.485c-307.249-256.177-482.748-670.2-458.01-1080.499l5.569,0.04
							C630.049,1879.398,804.821,2291.688,1110.794,2546.802z"/>
						<path style="fill:#FCFDFE;" d="M955.814,2391.823l-2.767,5.088c-139.197-73.253-315.797-5.214-317.565-4.517l-1.758-5.295
							C635.513,2386.392,814.422,2317.415,955.814,2391.823z"/>
						<path style="fill:#FCFDFE;" d="M1055.619,2498.031l-4.737,3.267c-85.907-135.728,43.044-414.249,44.357-417.046l5.01,2.224
							C1098.95,2089.244,971.346,2364.884,1055.619,2498.031z"/>
						<path style="fill:#FCFDFE;" d="M752.617,2052.452l-4.467,3.656c-77.245-100.835-273.591-113.609-275.565-113.728l0.623-5.68
							C475.207,1936.818,673.946,1949.753,752.617,2052.452z"/>
						<path style="fill:#FCFDFE;" d="M677.467,1804.145l-5.578,0.494c-4.691-149.278,128.399-306.622,129.748-308.195l4.118,3.606
							C804.422,1501.602,672.848,1657.193,677.467,1804.145z"/>
					</g>
				</g>
			</g>
		</g>
		<g>
			<g>
				<path style="fill:#26264F;" d="M1644.424,1001.571c81.582,689.51,163.164,1371.821,244.746,2046.942
					c3.662,30.267-17.251,57.039-46.509,59.531c-327.875,31.102-655.751,62.891-983.626,95.36
					c-58.488,2.839-90.605-29.844-94.369-62.564C680.692,2412.045,596.72,1675.619,512.747,931.566
					c-3.766-33.417,24.544-62.141,83.031-59.285c329.491,23.492,658.981,46.674,988.471,69.545
					C1613.703,943.774,1640.765,970.642,1644.424,1001.571z"/>
				
					<linearGradient id="SVGID_00000093178754421196835380000003365195600166035106_" gradientUnits="userSpaceOnUse" x1="697.8356" y1="2036.9137" x2="2778.3804" y2="1957.3756" gradientTransform="matrix(1 0 0.1172 1.0028 -223.9047 -3.761)">
					<stop  offset="0" style="stop-color:#444B8C"/>
					<stop  offset="0.9964" style="stop-color:#26264F"/>
				</linearGradient>
				<path style="fill:url(#SVGID_00000093178754421196835380000003365195600166035106_);" d="M1689.961,1000.16
					c82.096,692.515,164.191,1377.746,246.286,2055.689c3.684,30.369-17.356,57.293-46.8,59.806
					c-340.456,28.832-680.913,58.232-1021.37,88.214c-31.069,2.762-59.628-21.847-63.414-54.724
					C720.161,2417.01,635.66,1677.163,551.158,929.582c-3.789-33.558,18.733-59.321,50.01-57.2
					c342.747,22.863,685.493,45.448,1028.239,67.767C1659.049,942.121,1686.278,969.094,1689.961,1000.16z"/>
				
					<linearGradient id="SVGID_00000121960132908723098360000008998716124332535448_" gradientUnits="userSpaceOnUse" x1="600.1796" y1="2078.7954" x2="1898.6908" y2="2078.7954">
					<stop  offset="0.0036" style="stop-color:#E38DDD"/>
					<stop  offset="1" style="stop-color:#9571F6"/>
				</linearGradient>
				<path style="fill:url(#SVGID_00000121960132908723098360000008998716124332535448_);" d="M1670.181,1113.454
					c76.039,641.611,152.08,1276.962,228.119,1906.066c3.441,28.432-16.224,53.542-43.734,55.78
					c-320.181,26.186-640.364,52.869-960.545,80.051c-28.929,2.48-55.524-20.556-59.059-51.102
					C756.831,2428.02,678.7,1745.184,600.568,1055.75c-3.53-31.191,17.427-55.333,46.539-53.607
					c322.176,18.758,644.353,37.325,966.528,55.688C1641.313,1059.413,1666.749,1084.473,1670.181,1113.454z"/>
				
					<linearGradient id="SVGID_00000079453931527395637830000013446214638389909934_" gradientUnits="userSpaceOnUse" x1="1638.7344" y1="1248.1826" x2="-363.0687" y2="5400.2944">
					<stop  offset="0.0036" style="stop-color:#E38DDD"/>
					<stop  offset="1" style="stop-color:#9571F6"/>
				</linearGradient>
				<path style="opacity:0.3;fill:url(#SVGID_00000079453931527395637830000013446214638389909934_);" d="M1613.634,1057.832
					c-318.359-18.145-636.72-36.496-955.079-55.025c9.841,56.583,27,118.165,55.934,180.939
					c105.6,229.102,260.735,241.718,321.429,441.365c62.529,205.683-78.488,270.053-9.595,455.757
					c74.758,201.511,258.105,172.347,355.011,393.391c83.526,190.52-24.001,277.612,62.367,393.39
					c94.667,126.902,269.795,83.878,451.579,126.858c-75.033-620.939-150.067-1247.935-225.099-1881.053
					C1666.749,1084.473,1641.313,1059.414,1613.634,1057.832z"/>
			</g>
			<path style="fill:#DE8BDF;" d="M1148.629,973.26c1.295,11.155-6.201,19.697-16.748,19.088
				c-10.553-0.641-20.162-10.232-21.457-21.439c-1.297-11.175,6.212-19.766,16.766-19.076
				C1137.74,952.485,1147.334,962.084,1148.629,973.26z"/>
			
				<linearGradient id="SVGID_00000004507448658016854000000001279302940039821202_" gradientUnits="userSpaceOnUse" x1="1189.9587" y1="1506.3634" x2="1337.3303" y2="1506.3634">
				<stop  offset="0" style="stop-color:#FF9085"/>
				<stop  offset="1" style="stop-color:#FB6FBB"/>
			</linearGradient>
			
				<ellipse style="fill:url(#SVGID_00000004507448658016854000000001279302940039821202_);" cx="1263.645" cy="1506.364" rx="73.686" ry="86.933"/>
			
				<linearGradient id="SVGID_00000098204381405789054700000016120723910554381206_" gradientUnits="userSpaceOnUse" x1="1483.2756" y1="1506.3634" x2="1630.6466" y2="1506.3634">
				<stop  offset="0" style="stop-color:#FF9085"/>
				<stop  offset="1" style="stop-color:#FB6FBB"/>
			</linearGradient>
			
				<ellipse style="fill:url(#SVGID_00000098204381405789054700000016120723910554381206_);" cx="1556.961" cy="1506.364" rx="73.685" ry="86.933"/>
			<ellipse style="fill:#D8DEE8;" cx="1409.49" cy="1506.364" rx="74.736" ry="86.933"/>
			
				<linearGradient id="SVGID_00000000903645808568447290000000764657359671294391_" gradientUnits="userSpaceOnUse" x1="1776.5914" y1="1506.3634" x2="1923.9629" y2="1506.3634">
				<stop  offset="0" style="stop-color:#FF9085"/>
				<stop  offset="1" style="stop-color:#FB6FBB"/>
			</linearGradient>
			
				<ellipse style="fill:url(#SVGID_00000000903645808568447290000000764657359671294391_);" cx="1850.277" cy="1506.364" rx="73.686" ry="86.933"/>
			<ellipse style="fill:#D8DEE8;" cx="1702.806" cy="1506.364" rx="74.736" ry="86.933"/>
			<ellipse style="fill:#D8DEE8;" cx="1996.122" cy="1506.364" rx="74.735" ry="86.933"/>
			<ellipse style="fill:#D8DEE8;" cx="1116.174" cy="1506.364" rx="74.736" ry="86.933"/>
			
				<linearGradient id="SVGID_00000172407280460979657510000015820617059767516047_" gradientUnits="userSpaceOnUse" x1="585.785" y1="1255.8365" x2="2223.208" y2="1255.8365">
				<stop  offset="0" style="stop-color:#FF9085"/>
				<stop  offset="1" style="stop-color:#FB6FBB"/>
			</linearGradient>
			<polygon style="fill:url(#SVGID_00000172407280460979657510000015820617059767516047_);" points="585.785,993.537 
				1043.037,1518.136 2223.208,1518.136 1651.337,1059.98 			"/>
			<g>
				<polygon style="fill:#F4F7FA;" points="585.785,993.537 1043.037,1518.136 1190.91,1518.136 708.784,1001.207 				"/>
				<polygon style="fill:#F4F7FA;" points="840.848,1009.441 1336.631,1518.136 1482.7,1518.136 973.89,1017.739 				"/>
				<polygon style="fill:#F4F7FA;" points="1107.924,1026.096 1629.12,1518.136 1775.895,1518.136 1242.969,1034.517 				"/>
				<polygon style="fill:#F4F7FA;" points="1516.164,1051.552 1379.043,1043.002 1923.026,1518.136 2070.518,1518.136 				"/>
			</g>
			
				<linearGradient id="SVGID_00000091006345577337649350000016421238305474717831_" gradientUnits="userSpaceOnUse" x1="2070.6616" y1="1555.7157" x2="2216.5254" y2="1555.7157">
				<stop  offset="0" style="stop-color:#FF9085"/>
				<stop  offset="1" style="stop-color:#FB6FBB"/>
			</linearGradient>
			<path style="fill:url(#SVGID_00000091006345577337649350000016421238305474717831_);" d="M2070.662,1518.136
				c4.882,42.428,35.63,75.159,72.932,75.159s68.05-32.731,72.932-75.159H2070.662z"/>
			<path style="opacity:0.63;fill:#F4F7FA;" d="M1509.739,1845.845c-63.825-147.095-225.747-218.532-361.662-159.56
				c-135.914,58.975-194.354,226.028-130.528,373.126c63.826,147.095,225.748,218.532,361.662,159.56
				C1515.126,2159.996,1573.566,1992.943,1509.739,1845.845z M1309.323,2055.464l5.444,41.429l-39.809,5.229l-5.074-38.591
				c-27.374,2.366-54.74-1.476-71.352-8.386l5.94-49.127c18.29,7.093,43.379,12.481,69.783,9.009
				c23.158-3.04,37.822-14.065,35.686-30.312c-2.029-15.441-16.308-23.477-47.702-29.684c-45.389-8.911-77.71-25.327-82.892-64.733
				c-4.694-35.742,16.805-67.085,59.148-81.327l-5.069-38.591l39.813-5.228l4.694,35.747c27.379-2.361,46.405,0.923,60.666,5.659
				l-5.748,47.454c-11.15-3.078-31.062-9.97-60.315-6.124c-26.405,3.467-33.437,15.966-31.943,27.342
				c1.762,13.404,17.101,20.066,53.339,28.527c50.584,10.71,73.016,30.49,77.823,67.042
				C1376.506,2006.96,1354.974,2041.194,1309.323,2055.464z"/>
			<g style="opacity:0.63;">
				<path style="fill:#F4F7FA;" d="M1655.569,2644.558l-622.112,18.849c-22.365,0.678-41.715-15.45-45.078-37.571l-25.214-165.854
					c-4.009-26.368,16.051-50.262,42.714-50.879l622.785-14.426c22.249-0.515,41.418,15.578,44.764,37.58l24.542,161.431
					C1701.958,2619.93,1682.101,2643.754,1655.569,2644.558z"/>
				<path style="fill:#F4F7FA;" d="M1676.471,2780.903l-621.745,21.265c-22.429,0.767-41.879-15.38-45.252-37.566l-0.237-1.561
					c-3.986-26.219,15.832-50.029,42.338-50.869l621.982-19.704c22.387-0.709,41.773,15.426,45.14,37.57l0,0
					C1722.677,2756.212,1702.93,2779.998,1676.471,2780.903z"/>
			</g>
		</g>
		<g>
			
				<linearGradient id="SVGID_00000104667000771956455030000006836855542765876114_" gradientUnits="userSpaceOnUse" x1="4050.9558" y1="-193.5952" x2="4190.1587" y2="-193.5952" gradientTransform="matrix(0.7588 0.6514 -0.6514 0.7588 -216.3903 -734.4166)">
				<stop  offset="0" style="stop-color:#311944"/>
				<stop  offset="1" style="stop-color:#6B3976"/>
			</linearGradient>
			<path style="fill:url(#SVGID_00000104667000771956455030000006836855542765876114_);" d="M3029.494,1857.127
				c6.993,1.724,18.94,3.671,32.901,0.594c14.951-3.296,36.483-13.293,36.525-25.099c0.019-5.66-4.917-7.612-11.746-15.843
				c-14.214-17.131-10.734-30.251-18.173-43.25c-16.337-28.55-72.689-34.414-81.528-20.448c-3.68,5.817,0.873,15.078,9.268,32.151
				c8.603,17.497,14.708,21.48,21.97,36.143C3022.493,1829.008,3027.223,1840.819,3029.494,1857.127z"/>
			
				<linearGradient id="SVGID_00000085936177886430123270000014290278861295086464_" gradientUnits="userSpaceOnUse" x1="2955.2773" y1="3031.2471" x2="3190.6204" y2="3253.4182" gradientTransform="matrix(0.9873 -0.1586 0.1586 0.9873 -230.7199 205.6246)">
				<stop  offset="0" style="stop-color:#AB316D"/>
				<stop  offset="1" style="stop-color:#792D3D"/>
			</linearGradient>
			<path style="fill:url(#SVGID_00000085936177886430123270000014290278861295086464_);" d="M3329.924,2822.465l3.013-5.227
				c0,0,5.41-3.241,7.968,3.463c2.559,6.704,17.079,41.724,17.852,57.609c-3.809,9.505-14.588,1.454-16.812-5.007
				c-2.224-6.462-9.927-30.423-9.927-30.423L3329.924,2822.465z"/>
			
				<linearGradient id="SVGID_00000029737372096531855780000005955170966951855029_" gradientUnits="userSpaceOnUse" x1="2921.9695" y1="2670.8113" x2="3155.0833" y2="2579.8967">
				<stop  offset="0" style="stop-color:#40447E"/>
				<stop  offset="0.9964" style="stop-color:#3C3B6B"/>
			</linearGradient>
			<path style="fill:url(#SVGID_00000029737372096531855780000005955170966951855029_);" d="M3295.646,2847.463
				c4.502-0.066,8.98-0.034,13.51-0.237c8.26-0.369,16.564-0.964,24.899-1.793c-1.393-8.67-2.785-17.341-4.178-26.011
				c-4.252-1.624-8.405-3.253-12.468-4.887c-2.075-0.835-4.061-1.677-6.087-2.513c-1.912-0.79-3.864-1.577-5.733-2.37
				c-2.749-1.167-5.405-2.338-8.063-3.509c-1.057-0.465-2.154-0.928-3.197-1.394c-3.12-1.396-6.151-2.795-9.146-4.195
				c-0.505-0.236-1.035-0.472-1.535-0.707c-3.242-1.529-6.398-3.058-9.495-4.592c-0.224-0.112-0.462-0.222-0.686-0.334
				c-3.26-1.62-6.44-3.244-9.544-4.869c-0.042-0.023-0.087-0.044-0.131-0.067c-6.314-3.311-12.304-6.63-17.99-9.952l0,0
				c-70.47-41.183-93.772-82.996-100.952-115.875c-20.201-92.507,78.712-151.91,53.162-252.225
				c-19.252-75.594-100.517-140.323-150.557-125.227c-56.513,17.048-65.367,126.583-70.817,193.992
				c-6.136,75.898-12.972,160.453,35.571,236.191c45.965,71.72,129.003,115.855,224.556,127.601c0,0.005-0.001,0.01-0.001,0.015
				c2.272,0.278,4.6,0.406,6.886,0.648c5.541,0.587,11.073,1.2,16.689,1.57c2.569,0.17,5.183,0.18,7.765,0.304
				c5.475,0.263,10.938,0.565,16.469,0.622C3288.242,2847.686,3291.958,2847.515,3295.646,2847.463z"/>
			
				<linearGradient id="SVGID_00000096743422907298921100000000972532641333262234_" gradientUnits="userSpaceOnUse" x1="2921.9695" y1="2670.8113" x2="3155.0833" y2="2579.8967">
				<stop  offset="0" style="stop-color:#40447E"/>
				<stop  offset="0.9964" style="stop-color:#3C3B6B"/>
			</linearGradient>
			<path style="opacity:0.25;fill:url(#SVGID_00000096743422907298921100000000972532641333262234_);" d="M3295.646,2847.463
				c4.502-0.066,8.98-0.034,13.51-0.237c8.26-0.369,16.564-0.964,24.899-1.793c-1.393-8.67-2.785-17.341-4.178-26.011
				c-4.252-1.624-8.405-3.253-12.468-4.887c-2.075-0.835-4.061-1.677-6.087-2.513c-1.912-0.79-3.864-1.577-5.733-2.37
				c-2.749-1.167-5.405-2.338-8.063-3.509c-1.057-0.465-2.154-0.928-3.197-1.394c-3.12-1.396-6.151-2.795-9.146-4.195
				c-0.505-0.236-1.035-0.472-1.535-0.707c-3.242-1.529-6.398-3.058-9.495-4.592c-0.224-0.112-0.462-0.222-0.686-0.334
				c-3.26-1.62-6.44-3.244-9.544-4.869c-0.042-0.023-0.087-0.044-0.131-0.067c-6.314-3.311-12.304-6.63-17.99-9.952l0,0
				c-70.47-41.183-93.772-82.996-100.952-115.875c-20.201-92.507,78.712-151.91,53.162-252.225
				c-19.252-75.594-100.517-140.323-150.557-125.227c-56.513,17.048-65.367,126.583-70.817,193.992
				c-6.136,75.898-12.972,160.453,35.571,236.191c45.965,71.72,129.003,115.855,224.556,127.601c0,0.005-0.001,0.01-0.001,0.015
				c2.272,0.278,4.6,0.406,6.886,0.648c5.541,0.587,11.073,1.2,16.689,1.57c2.569,0.17,5.183,0.18,7.765,0.304
				c5.475,0.263,10.938,0.565,16.469,0.622C3288.242,2847.686,3291.958,2847.515,3295.646,2847.463z"/>
			
				<linearGradient id="SVGID_00000111159905251978267470000007142705783149095354_" gradientUnits="userSpaceOnUse" x1="2781.0178" y1="1991.8519" x2="2975.3887" y2="2176.6003">
				<stop  offset="0" style="stop-color:#AA80F9"/>
				<stop  offset="0.9964" style="stop-color:#6165D7"/>
			</linearGradient>
			<path style="fill:url(#SVGID_00000111159905251978267470000007142705783149095354_);" d="M2835.461,2309.762
				c-10.803-17.141,39.572-42.429,55.948-112.769c13.827-59.389-14.385-74.434,1.006-153.941
				c8.573-44.282,23.205-69.996,40.26-88.664c14.055-15.386,32.315-35.374,48.775-32.761c51.611,8.195,112.744,242.941,9.616,345.3
				C2938.074,2319.524,2848.492,2330.436,2835.461,2309.762z"/>
			<g>
				
					<linearGradient id="SVGID_00000127761205685953842970000006654622747410116763_" gradientUnits="userSpaceOnUse" x1="2556.7659" y1="3356.5691" x2="2550.5037" y2="3665.8315" gradientTransform="matrix(0.9832 -0.1825 0.1825 0.9832 -66.6194 160.6767)">
					<stop  offset="0" style="stop-color:#AB316D"/>
					<stop  offset="1" style="stop-color:#792D3D"/>
				</linearGradient>
				<path style="fill:url(#SVGID_00000127761205685953842970000006654622747410116763_);" d="M3106.361,3053.022
					c-2.346-5.413-15.265,8.191-27.299,22.558c1.55,20.677,3.101,41.355,4.651,62.033c-4.273-2.716-9.661-5.685-15.738-7.088
					c-7.304-1.683-19.927,0.946-20.897,4.437c-5.985,21.549,47.751,26.253,53.639,19.484c5.888-6.771,4.542-14.694,4.542-14.694
					c-5.454-31.052-4.732-52.083-2.147-66.603C3104.929,3062.95,3107.656,3056.01,3106.361,3053.022z"/>
				
					<linearGradient id="SVGID_00000080190443695844645300000016705034871745591696_" gradientUnits="userSpaceOnUse" x1="2627.0217" y1="2841.7622" x2="2721.856" y2="3163.1438" gradientTransform="matrix(0.9832 -0.1825 0.1825 0.9832 -66.6194 160.6767)">
					<stop  offset="0" style="stop-color:#40447E"/>
					<stop  offset="0.9964" style="stop-color:#3C3B6B"/>
				</linearGradient>
				<path style="fill:url(#SVGID_00000080190443695844645300000016705034871745591696_);" d="M3244.028,2359.527
					c-30.665-45.211-60.556-90.945-90.523-136.621c-5.887-8.974-9.3-19.386-10.942-30.318c-11.899,9.445-23.295,20.75-33.797,33.977
					c-8.438,42.307-21.469,105.906-38.662,182.987c-43.688,195.876-62.076,244.929-71.343,306.542
					c-14.258,94.794-9.204,234.473,84.95,421.518c7.182,0.713,14.363,1.426,21.546,2.139
					c15.134-159.992,32.493-304.394,41.252-378.603c2.973-25.179,11.744-100.711,52.185-161.551
					c0.651-0.979,60.491-82.808,81.139-115.501c6.874-10.884,15.474-25.003,25.248-43.886
					C3281.896,2415.846,3263.317,2387.962,3244.028,2359.527z"/>
				
					<linearGradient id="SVGID_00000141424464802589812530000015335839070751597995_" gradientUnits="userSpaceOnUse" x1="3103.4624" y1="2420.9758" x2="3200.5491" y2="2749.9912">
					<stop  offset="0" style="stop-color:#40447E"/>
					<stop  offset="0.9964" style="stop-color:#3C3B6B"/>
				</linearGradient>
				<path style="opacity:0.25;fill:url(#SVGID_00000141424464802589812530000015335839070751597995_);" d="M3244.028,2359.527
					c-30.665-45.211-60.557-90.944-90.523-136.622c-5.886-8.975-9.3-19.385-10.942-30.318c-11.899,9.445-23.295,20.75-33.797,33.979
					c-13.375,51.725-22.908,95.971-29.583,129.802c-18.515,93.837-17.462,119.79-4.198,143.09
					c18.232,32.03,39.228,23.367,52.551,51.243c23.356,48.875-39.188,82.269-38.614,176.518
					c0.319,52.26,19.006,65.378,10.499,113.347c-2.196,12.383-8.422,39.588-5.671,76.96c1.207,16.412,2.531,12.841,3.536,27.67
					c2.864,42.249-7.214,81.09-2.847,107.475c1.57,9.483,4.796,16.097,6.049,18.505c3.362,6.461,7.304,11.091,10.075,13.964
					c13.715-137.728,28.196-258.337,35.946-323.993c2.973-25.177,11.744-100.711,52.185-161.551
					c0.651-0.979,60.491-82.809,81.139-115.503c6.874-10.883,15.474-25.002,25.248-43.885
					C3281.896,2415.846,3263.316,2387.961,3244.028,2359.527z"/>
			</g>
			
				<linearGradient id="SVGID_00000092429649993018325700000017838046018105625000_" gradientUnits="userSpaceOnUse" x1="3174.7031" y1="2087.5652" x2="3709.531" y2="2426.4653" gradientTransform="matrix(0.9995 -0.0302 0.0302 0.9995 -235.3357 118.8563)">
				<stop  offset="0" style="stop-color:#AA80F9"/>
				<stop  offset="0.9964" style="stop-color:#6165D7"/>
			</linearGradient>
			<path style="fill:url(#SVGID_00000092429649993018325700000017838046018105625000_);" d="M2926.709,1964.191
				c-19.278,35.348-17.082,70.553-14.971,85.962c6.349,46.344,33.424,77.229,42.513,88.907
				c30.479,39.156,54.249,116.607,16.415,286.384c21.228-3.406,56.161-6.677,96.865,1.807
				c103.53,21.581,144.858,98.458,194.528,84.445c18.339-5.173,43.243-24.268,60.61-95.576
				c15.177-37.078,62.473-165.736,13.988-317.035c-34.679-108.215-101.387-175.059-134.432-204.132
				c-28.409-9.568-117.112-35.427-201.511,5.442C2979.684,1910.579,2947.016,1926.959,2926.709,1964.191z"/>
			
				<linearGradient id="SVGID_00000005261845194296583780000016303307602432485281_" gradientUnits="userSpaceOnUse" x1="-762.6411" y1="2811.4854" x2="-752.7907" y2="2549.1023" gradientTransform="matrix(-0.9261 0.3773 0.3773 0.9261 1315.5769 -288.2454)">
				<stop  offset="0" style="stop-color:#311944"/>
				<stop  offset="1" style="stop-color:#893976"/>
			</linearGradient>
			<path style="fill:url(#SVGID_00000005261845194296583780000016303307602432485281_);" d="M3040.919,1824.134
				c-0.026,7.469,0.261,47.462,18.032,54.028c3.884,1.435,7.004,0.52,24.234,0.969c9.822,0.256,17.814,0.782,22.961,1.177
				c-0.874,6.814-2.59,15.953-6.242,26.23c-22.112,62.219-93.684,105.446-117.931,89.876c-12.628-8.108-13.601-32.432-14.005-42.525
				c-0.607-15.16,3.048-27.17,5.716-34.045c8.876-6.448,17.958-12.913,27.248-19.377c6.068-4.224,12.102-8.365,18.102-12.424
				c-0.405-7.653-0.811-15.305-1.216-22.958C3025.519,1851.436,3033.219,1837.784,3040.919,1824.134z"/>
			
				<linearGradient id="SVGID_00000158721416782973829000000004989217701538117797_" gradientUnits="userSpaceOnUse" x1="-1829.7695" y1="622.0897" x2="-1835.0433" y2="471.7909" gradientTransform="matrix(-0.8767 -0.4811 -0.4811 0.8767 1635.6863 547.8022)">
				<stop  offset="0" style="stop-color:#311944"/>
				<stop  offset="1" style="stop-color:#A03976"/>
			</linearGradient>
			<path style="fill:url(#SVGID_00000158721416782973829000000004989217701538117797_);" d="M3047.346,1850.962
				c0,0-21.375,25.029-48.287,16.034c-24.097-8.053-11.532-70.069,7.201-77.613c6.25-2.516,17.871-1.795,25.753,2.83
				c5.542,3.252,25.558,20.228,17.767,40.719c5.925-3.506,12.019-3.845,15.501-0.918c0.556,0.466,1.938,2.056,2.428,4.041
				C3069.484,1843.238,3061.636,1849.748,3047.346,1850.962z"/>
			
				<linearGradient id="SVGID_00000008136927346530645660000013497560167196351404_" gradientUnits="userSpaceOnUse" x1="3162.5251" y1="2084.5645" x2="3711.6458" y2="2432.5217" gradientTransform="matrix(0.9995 -0.0302 0.0302 0.9995 -235.3357 118.8563)">
				<stop  offset="0" style="stop-color:#AA80F9"/>
				<stop  offset="0.9964" style="stop-color:#6165D7"/>
			</linearGradient>
			<path style="opacity:0.3;fill:url(#SVGID_00000008136927346530645660000013497560167196351404_);" d="M3336.657,2099.086
				c-27.132-84.666-73.813-143.893-108.696-179.635c-39.991,26.433-80.676,62.252-77.279,100.658
				c3.866,43.704,62.25,61.764,56.798,89.399c-7.904,40.059-135.081,24.885-149.923,68.969
				c-17.489,51.949,133.308,149.656,125.244,160.717c-5.769,7.913-75.128-47.998-153.855-34.967
				c-15.273,2.527-28.958,8.482-41.15,16.328c-2.803,30.366-8.252,65.059-17.129,104.89c21.228-3.406,56.161-6.677,96.865,1.807
				c103.53,21.581,144.858,98.458,194.528,84.445c18.339-5.173,43.243-24.268,60.61-95.576
				C3337.847,2379.042,3385.142,2250.385,3336.657,2099.086z"/>
			
				<linearGradient id="SVGID_00000027581129684843960950000010645877663611123133_" gradientUnits="userSpaceOnUse" x1="3136.9778" y1="2048.3201" x2="3419.8513" y2="2227.5664">
				<stop  offset="0" style="stop-color:#AA80F9"/>
				<stop  offset="0.9964" style="stop-color:#6165D7"/>
			</linearGradient>
			<path style="fill:url(#SVGID_00000027581129684843960950000010645877663611123133_);" d="M3145.925,1897.939
				c24.035-5.989,24.157-13.805,56.3-2.985c92.302,31.071,190.016,170.37,139.516,268.735
				c-28.088,54.711-95.39,104.043-169.591,92.663c-60.403-9.264-95.881-54.24-104.901-66.438
				c-3.497-13.987-6.993-27.973-10.49-41.96c39.363,22.315,67.088,22.308,85.669,17.483c31.628-8.212,38.651-30.875,90.915-50.702
				c20.361-7.725,32.593-9.33,33.219-15.735c1.293-13.246-49.899-17.665-82.172-45.458
				C3160.862,2033.283,3137.39,1991.988,3145.925,1897.939z"/>
			
				<linearGradient id="SVGID_00000090258851094440410600000007992285698470949262_" gradientUnits="userSpaceOnUse" x1="2988.4868" y1="2156.5991" x2="3116.3174" y2="2156.5991">
				<stop  offset="0" style="stop-color:#311944"/>
				<stop  offset="1" style="stop-color:#A03976"/>
			</linearGradient>
			<path style="fill:url(#SVGID_00000090258851094440410600000007992285698470949262_);" d="M3059.544,2159.09l-10.996-3.174
				c0,0-14.066-9.855-23.111-13.826c-3.531-1.551-6.781-2.321-10.402-2.224v-0.022c0,0-32.58-13.5-25.556-5.678
				c7.021,7.821,15.154,12.057,15.154,12.057s-0.031,0.248-0.302,0.68c-0.135,0.189-0.203,0.33-0.336,0.528
				c-0.819,1.221-1.245,2.431-1.47,3.63c-1.977,6.176-1.601,16.75,19.976,22.513l0.004-0.035c5.19,1.365,11.708,1.468,17.358,1.167
				c5.896-0.313,25.274,6.764,25.274,6.764L3059.544,2159.09z"/>
			<g>
				<g>
					<g>
						
							<linearGradient id="SVGID_00000166645383365164295560000017769256882021447051_" gradientUnits="userSpaceOnUse" x1="1908.3761" y1="3132.7671" x2="1926.2848" y2="3147.8269">
							<stop  offset="0" style="stop-color:#AA80F9"/>
							<stop  offset="0.9964" style="stop-color:#6165D7"/>
						</linearGradient>
						<path style="fill:url(#SVGID_00000166645383365164295560000017769256882021447051_);" d="M1975.713,3162.171
							c0,23.518-14.492,42.581-32.37,42.581c-17.877,0-32.37-19.064-32.37-42.581c0-23.517,14.493-42.582,32.37-42.582
							C1961.221,3119.59,1975.713,3138.654,1975.713,3162.171z"/>
						
							<linearGradient id="SVGID_00000102527317608819366940000014210352802193783216_" gradientUnits="userSpaceOnUse" x1="1919.9897" y1="3166.9783" x2="1984.7299" y2="3166.9783">
							<stop  offset="0" style="stop-color:#AA80F9"/>
							<stop  offset="0.9964" style="stop-color:#6165D7"/>
						</linearGradient>
						<path style="fill:url(#SVGID_00000102527317608819366940000014210352802193783216_);" d="M1984.73,3166.979
							c0,23.518-14.492,42.581-32.37,42.581c-17.878,0-32.371-19.064-32.371-42.581c0-23.517,14.493-42.582,32.371-42.582
							C1970.238,3124.397,1984.73,3143.461,1984.73,3166.979z"/>
						
							<linearGradient id="SVGID_00000050653259119451791960000006064565229097749936_" gradientUnits="userSpaceOnUse" x1="1938.793" y1="3167.8362" x2="1965.9209" y2="3167.8362">
							<stop  offset="0" style="stop-color:#40447E"/>
							<stop  offset="0.9964" style="stop-color:#3C3B6B"/>
						</linearGradient>
						<path style="fill:url(#SVGID_00000050653259119451791960000006064565229097749936_);" d="M1965.921,3167.836
							c0,9.854-6.073,17.843-13.564,17.843c-7.49,0-13.564-7.989-13.564-17.843c0-9.854,6.074-17.842,13.564-17.842
							C1959.848,3149.993,1965.921,3157.982,1965.921,3167.836z"/>
					</g>
					<path style="fill:#C2C2C2;" d="M1943.343,3115.003v46.757c0,6.865,5.565,12.431,12.431,12.431l0,0
						c3.968,0,7.698-1.895,10.038-5.099l42.053-57.583L1943.343,3115.003z"/>
				</g>
				<g>
					<g>
						
							<linearGradient id="SVGID_00000136409583388095178330000013019083440272953505_" gradientUnits="userSpaceOnUse" x1="2254.9373" y1="3095.4277" x2="2272.8459" y2="3110.4875">
							<stop  offset="0" style="stop-color:#AA80F9"/>
							<stop  offset="0.9964" style="stop-color:#6165D7"/>
						</linearGradient>
						<path style="fill:url(#SVGID_00000136409583388095178330000013019083440272953505_);" d="M2322.274,3124.832
							c0,23.518-14.493,42.582-32.37,42.582c-17.877,0-32.37-19.064-32.37-42.582c0-23.516,14.493-42.582,32.37-42.582
							C2307.782,3082.25,2322.274,3101.316,2322.274,3124.832z"/>
						
							<linearGradient id="SVGID_00000064318950531373962050000006080648582027197585_" gradientUnits="userSpaceOnUse" x1="2266.5518" y1="3129.6399" x2="2331.292" y2="3129.6399">
							<stop  offset="0" style="stop-color:#AA80F9"/>
							<stop  offset="0.9964" style="stop-color:#6165D7"/>
						</linearGradient>
						<path style="fill:url(#SVGID_00000064318950531373962050000006080648582027197585_);" d="M2331.292,3129.639
							c0,23.517-14.493,42.582-32.37,42.582c-17.878,0-32.371-19.065-32.371-42.582c0-23.517,14.493-42.581,32.371-42.581
							C2316.799,3087.058,2331.292,3106.123,2331.292,3129.639z"/>
						
							<linearGradient id="SVGID_00000011009847737578987370000015980332343647049358_" gradientUnits="userSpaceOnUse" x1="2285.355" y1="3130.4973" x2="2312.4819" y2="3130.4973">
							<stop  offset="0" style="stop-color:#40447E"/>
							<stop  offset="0.9964" style="stop-color:#3C3B6B"/>
						</linearGradient>
						<path style="fill:url(#SVGID_00000011009847737578987370000015980332343647049358_);" d="M2312.482,3130.497
							c0,9.854-6.072,17.843-13.564,17.843c-7.49,0-13.563-7.989-13.563-17.843s6.073-17.842,13.563-17.842
							C2306.41,3112.655,2312.482,3120.642,2312.482,3130.497z"/>
					</g>
					<path style="fill:#C2C2C2;" d="M2289.904,3077.664v46.759c0,6.865,5.565,12.43,12.431,12.43l0,0
						c3.968,0,7.698-1.895,10.039-5.099l42.052-57.583L2289.904,3077.664z"/>
				</g>
				<g>
					<path style="fill:#C2C2C2;" d="M1938.516,3117.811c-2.022,0-3.765-1.52-3.997-3.578c-0.25-2.211,1.341-4.203,3.552-4.453
						l410.415-46.251c24.301-4.172,44.323-22.42,50.778-46.455l171.923-640.071c8.658-32.241,36.855-55.444,70.16-57.739
						l124.797-7.441c2.181-0.181,4.128,1.558,4.26,3.78c0.134,2.221-1.56,4.128-3.78,4.26l-124.76,7.439
						c-29.839,2.057-55.129,22.871-62.896,51.789l-171.923,640.071c-7.268,27.062-29.81,47.606-57.428,52.34l-410.645,46.282
						C1938.819,3117.803,1938.667,3117.811,1938.516,3117.811z"/>
				</g>
				<g>
					<path style="fill:#C2C2C2;" d="M2224.045,2865.843c-1.752,0-3.365-1.155-3.871-2.923l-96.644-338.176
						c-0.612-2.14,0.627-4.368,2.765-4.98c2.14-0.614,4.37,0.627,4.98,2.765l96.644,338.176c0.612,2.14-0.628,4.368-2.765,4.98
						C2224.784,2865.792,2224.411,2865.843,2224.045,2865.843z"/>
				</g>
				<g>
					<path style="fill:#C2C2C2;" d="M2322.919,2851.705c-1.916,0-3.615-1.371-3.961-3.322l-59.614-334.99
						c-0.389-2.191,1.07-4.282,3.259-4.671c2.203-0.387,4.282,1.07,4.671,3.259l59.614,334.989c0.389,2.191-1.07,4.282-3.259,4.671
						C2323.389,2851.685,2323.153,2851.705,2322.919,2851.705z"/>
				</g>
				<g>
					<path style="fill:#C2C2C2;" d="M2384.342,2840.722c-0.055,0-0.112-0.002-0.169-0.004c-2.222-0.093-3.949-1.969-3.857-4.191
						l13.754-331.445c0.091-2.222,1.851-3.995,4.191-3.857c2.223,0.093,3.949,1.969,3.857,4.191l-13.754,331.445
						C2388.276,2839.026,2386.49,2840.722,2384.342,2840.722z"/>
				</g>
				<g>
					<path style="fill:#C2C2C2;" d="M2089.187,2878.216c-1.684,0-3.253-1.064-3.82-2.75l-113.474-338.325
						c-0.706-2.108,0.429-4.392,2.539-5.1c2.111-0.698,4.392,0.429,5.1,2.539l113.474,338.325c0.706,2.108-0.429,4.392-2.539,5.1
						C2090.043,2878.147,2089.612,2878.216,2089.187,2878.216z"/>
				</g>
				<g>
					
						<linearGradient id="SVGID_00000062876012692108542340000014583934665645174675_" gradientUnits="userSpaceOnUse" x1="2763.8647" y1="2325.3276" x2="3065.9548" y2="2325.3276">
						<stop  offset="0" style="stop-color:#40447E"/>
						<stop  offset="0.9964" style="stop-color:#3C3B6B"/>
					</linearGradient>
					<path style="fill:url(#SVGID_00000062876012692108542340000014583934665645174675_);" d="M3057.727,2344.867
						c-0.227,0-0.455-0.008-0.686-0.027l-285.614-22.961c-4.533-0.364-7.908-4.254-7.534-8.69c0.372-4.435,4.356-7.767,8.886-7.368
						l285.614,22.961c4.533,0.364,7.908,4.254,7.534,8.69C3065.573,2341.681,3061.97,2344.867,3057.727,2344.867z"/>
				</g>
				<g>
					<g>
						
							<linearGradient id="SVGID_00000170252795145832970660000001809349172154908577_" gradientUnits="userSpaceOnUse" x1="2212.4321" y1="3248.9006" x2="2230.3408" y2="3263.9602">
							<stop  offset="0" style="stop-color:#AA80F9"/>
							<stop  offset="0.9964" style="stop-color:#6165D7"/>
						</linearGradient>
						<path style="fill:url(#SVGID_00000170252795145832970660000001809349172154908577_);" d="M2279.769,3278.305
							c0,23.517-14.492,42.582-32.369,42.582c-17.879,0-32.371-19.065-32.371-42.582s14.492-42.581,32.371-42.581
							C2265.277,3235.723,2279.769,3254.788,2279.769,3278.305z"/>
						
							<linearGradient id="SVGID_00000041982252987855125960000005751246508821166012_" gradientUnits="userSpaceOnUse" x1="2224.0459" y1="3283.1123" x2="2288.7859" y2="3283.1123">
							<stop  offset="0" style="stop-color:#AA80F9"/>
							<stop  offset="0.9964" style="stop-color:#6165D7"/>
						</linearGradient>
						<path style="fill:url(#SVGID_00000041982252987855125960000005751246508821166012_);" d="M2288.786,3283.112
							c0,23.517-14.492,42.582-32.369,42.582c-17.877,0-32.371-19.065-32.371-42.582s14.493-42.581,32.371-42.581
							C2274.294,3240.531,2288.786,3259.595,2288.786,3283.112z"/>
						
							<linearGradient id="SVGID_00000062894171918317784250000003812537219520346499_" gradientUnits="userSpaceOnUse" x1="2242.8491" y1="3283.9697" x2="2269.9771" y2="3283.9697">
							<stop  offset="0" style="stop-color:#40447E"/>
							<stop  offset="0.9964" style="stop-color:#3C3B6B"/>
						</linearGradient>
						<path style="fill:url(#SVGID_00000062894171918317784250000003812537219520346499_);" d="M2269.977,3283.969
							c0,9.854-6.072,17.843-13.564,17.843c-7.49,0-13.564-7.989-13.564-17.843c0-9.854,6.073-17.842,13.564-17.842
							C2263.905,3266.127,2269.977,3274.116,2269.977,3283.969z"/>
					</g>
					<path style="fill:#999999;" d="M2247.4,3231.137v46.757c0,6.866,5.565,12.431,12.43,12.431l0,0c3.969,0,7.698-1.895,10.039-5.1
						l42.052-57.583L2247.4,3231.137z"/>
				</g>
				<g>
					<g>
						
							<linearGradient id="SVGID_00000155136929614408291930000017856686549020679334_" gradientUnits="userSpaceOnUse" x1="2512.4802" y1="3218.8625" x2="2530.3889" y2="3233.9224">
							<stop  offset="0" style="stop-color:#AA80F9"/>
							<stop  offset="0.9964" style="stop-color:#6165D7"/>
						</linearGradient>
						<path style="fill:url(#SVGID_00000155136929614408291930000017856686549020679334_);" d="M2579.817,3248.267
							c0,23.517-14.492,42.581-32.37,42.581c-17.878,0-32.37-19.065-32.37-42.581c0-23.518,14.492-42.582,32.37-42.582
							C2565.325,3205.686,2579.817,3224.749,2579.817,3248.267z"/>
						
							<linearGradient id="SVGID_00000176727976103613345980000009196418597216176545_" gradientUnits="userSpaceOnUse" x1="2524.0945" y1="3253.0742" x2="2588.8347" y2="3253.0742">
							<stop  offset="0" style="stop-color:#AA80F9"/>
							<stop  offset="0.9964" style="stop-color:#6165D7"/>
						</linearGradient>
						<path style="fill:url(#SVGID_00000176727976103613345980000009196418597216176545_);" d="M2588.835,3253.074
							c0,23.518-14.493,42.581-32.37,42.581c-17.877,0-32.371-19.064-32.371-42.581c0-23.517,14.493-42.582,32.371-42.582
							C2574.342,3210.493,2588.835,3229.557,2588.835,3253.074z"/>
						
							<linearGradient id="SVGID_00000083060400028971329040000003069367869550009787_" gradientUnits="userSpaceOnUse" x1="2542.8977" y1="3253.9312" x2="2570.0249" y2="3253.9312">
							<stop  offset="0" style="stop-color:#40447E"/>
							<stop  offset="0.9964" style="stop-color:#3C3B6B"/>
						</linearGradient>
						<path style="fill:url(#SVGID_00000083060400028971329040000003069367869550009787_);" d="M2570.025,3253.931
							c0,9.854-6.072,17.842-13.563,17.842s-13.564-7.989-13.564-17.842c0-9.854,6.073-17.843,13.564-17.843
							S2570.025,3244.077,2570.025,3253.931z"/>
					</g>
					<path style="fill:#999999;" d="M2547.448,3201.099v46.757c0,6.865,5.565,12.431,12.43,12.431l0,0
						c3.969,0,7.698-1.896,10.04-5.1l42.052-57.583L2547.448,3201.099z"/>
				</g>
				<g>
					<path style="fill:#C2C2C2;" d="M1810.828,2547.64c-2.093,0-3.861-1.619-4.014-3.739c-0.159-2.219,1.511-4.148,3.729-4.308
						l730.944-52.611c0.319-0.018,0.647-0.006,0.966,0.047l302.603,51.542c2.193,0.374,3.668,2.455,3.295,4.648
						c-0.372,2.193-2.455,3.68-4.648,3.294l-302.123-51.461l-730.458,52.578C1811.022,2547.636,1810.924,2547.64,1810.828,2547.64z"
						/>
				</g>
				<g>
					<path style="fill:#999999;" d="M2059.193,2623.048c-0.395,0-0.791-0.059-1.17-0.173l-248.361-75.407
						c-2.128-0.647-3.33-2.897-2.685-5.025c0.649-2.128,2.909-3.322,5.025-2.685l247.596,75.175l784.389-76.399
						c2.254-0.218,4.186,1.404,4.4,3.617c0.216,2.215-1.404,4.185-3.617,4.4l-785.186,76.478
						C2059.452,2623.042,2059.323,2623.048,2059.193,2623.048z"/>
				</g>
				<g>
					<path style="fill:#C2C2C2;" d="M2749.829,2889.842c-0.205,0-0.409-0.016-0.617-0.047l-298.319-45.771l-453.569,43.66
						c-2.195,0.197-4.182-1.412-4.396-3.625c-0.212-2.215,1.41-4.181,3.625-4.396l454.069-43.708
						c0.333-0.031,0.667-0.023,0.997,0.03l298.817,45.847c2.199,0.336,3.707,2.394,3.369,4.593
						C2753.5,2888.416,2751.782,2889.842,2749.829,2889.842z"/>
				</g>
				<g>
					<path style="fill:#999999;" d="M2209.923,2941.179c-1.544,0-2.968-0.887-3.639-2.303l-150.732-318.132
						c-0.952-2.01-0.094-4.412,1.916-5.365c2.004-0.948,4.414-0.096,5.365,1.916l149.522,315.578l537.086-51.069
						c2.262-0.199,4.18,1.416,4.392,3.629c0.21,2.215-1.414,4.181-3.629,4.392l-539.899,51.337
						C2210.178,2941.173,2210.051,2941.179,2209.923,2941.179z"/>
				</g>
				<g>
					<path style="fill:#999999;" d="M2209.929,2941.179c-0.326,0-0.655-0.039-0.985-0.122l-212.987-53.477
						c-1.088-0.273-2.014-0.987-2.553-1.973l-186.106-340.062c-1.068-1.951-0.35-4.4,1.601-5.468
						c1.953-1.062,4.398-0.348,5.468,1.601l185.26,338.518l211.28,53.048c2.158,0.541,3.468,2.73,2.925,4.888
						C2213.373,2939.96,2211.73,2941.179,2209.929,2941.179z"/>
				</g>
				<g>
					<path style="fill:#999999;" d="M2114.019,2738.762c-0.384,0-0.765-0.055-1.133-0.163l-233.913-68.563
						c-2.134-0.625-3.357-2.864-2.732-4.998c0.625-2.134,2.87-3.361,4.998-2.732l233.185,68.348l691.538-60.314
						c2.244-0.224,4.17,1.448,4.363,3.662c0.195,2.217-1.446,4.17-3.662,4.362l-692.293,60.381
						C2114.253,2738.756,2114.135,2738.762,2114.019,2738.762z"/>
				</g>
				<g>
					<path style="fill:#999999;" d="M2171.164,2859.374c-0.368,0-0.732-0.049-1.088-0.149l-224.088-62.78
						c-2.142-0.6-3.391-2.822-2.791-4.966c0.598-2.142,2.824-3.399,4.964-2.791l223.382,62.582l600.584-52.542
						c2.256-0.207,4.172,1.446,4.365,3.662c0.195,2.215-1.446,4.17-3.662,4.363l-601.314,52.608
						C2171.398,2859.368,2171.28,2859.374,2171.164,2859.374z"/>
				</g>
				<g>
					<path style="fill:#999999;" d="M2320.169,2930.698c-1.735,0-3.338-1.131-3.859-2.879l-96.125-322.5
						c-0.635-2.132,0.578-4.376,2.71-5.011c2.13-0.635,4.376,0.576,5.011,2.71l96.124,322.5c0.635,2.132-0.578,4.376-2.71,5.011
						C2320.938,2930.643,2320.551,2930.698,2320.169,2930.698z"/>
				</g>
				<g>
					<path style="fill:#999999;" d="M2426.505,2920.584c-1.92,0-3.619-1.375-3.963-3.328l-57.655-326.734
						c-0.385-2.191,1.076-4.28,3.267-4.667c2.191-0.378,4.28,1.078,4.667,3.267l57.655,326.734c0.385,2.191-1.076,4.28-3.267,4.667
						C2426.973,2920.564,2426.738,2920.584,2426.505,2920.584z"/>
				</g>
				<g>
					<path style="fill:#999999;" d="M2546.429,2906.938c-2.122,0-3.898-1.658-4.018-3.802l-18.168-324.431
						c-0.124-2.221,1.576-4.123,3.796-4.246c2.191-0.118,4.125,1.575,4.249,3.796l18.168,324.431
						c0.124,2.22-1.575,4.123-3.796,4.246C2546.582,2906.936,2546.505,2906.938,2546.429,2906.938z"/>
				</g>
				<g>
					<path style="fill:#999999;" d="M2660.056,2894.215c-0.071,0-0.144-0.002-0.214-0.006c-2.223-0.116-3.928-2.012-3.812-4.233
						l17.291-329.602c0.116-2.223,2-3.951,4.233-3.812c2.223,0.116,3.928,2.012,3.812,4.233l-17.291,329.602
						C2663.962,2892.547,2662.184,2894.215,2660.056,2894.215z"/>
				</g>
				<g>
					<path style="fill:#999999;" d="M2145.512,2925.006c-1.499,0-2.938-0.84-3.633-2.281l-155.364-322.923
						c-0.964-2.004-0.12-4.412,1.884-5.377c2.002-0.958,4.414-0.12,5.377,1.884l155.364,322.923c0.964,2.004,0.12,4.412-1.885,5.377
						C2146.694,2924.878,2146.098,2925.006,2145.512,2925.006z"/>
				</g>
				<g>
					<path style="fill:#999999;" d="M2059.197,2903.333c-1.479,0-2.903-0.816-3.607-2.228l-164.915-330.358
						c-0.995-1.99-0.187-4.41,1.804-5.403c1.994-1.001,4.41-0.185,5.403,1.804l164.915,330.357c0.995,1.991,0.187,4.41-1.804,5.403
						C2060.414,2903.197,2059.8,2903.333,2059.197,2903.333z"/>
				</g>
				<g>
					<path style="fill:#999999;" d="M2245.771,3239.752c-0.508,0-1.011-0.096-1.485-0.283l-307.249-121.941
						c-2.069-0.822-3.08-3.163-2.26-5.232c0.818-2.067,3.159-3.078,5.23-2.258l306.295,121.564l371.77-45.417
						c28.185-3.442,51.27-23.356,58.811-50.731l203.175-737.607c8.774-31.847,36.804-54.85,69.749-57.237l107.802-7.816
						c2.205-0.146,4.15,1.509,4.309,3.727c0.159,2.219-1.509,4.148-3.727,4.309l-107.802,7.816
						c-29.55,2.14-54.694,22.774-62.566,51.341l-203.175,737.607c-8.41,30.535-34.16,52.747-65.601,56.588l-372.789,45.541
						C2246.097,3239.742,2245.934,3239.752,2245.771,3239.752z"/>
				</g>
			</g>
			
				<linearGradient id="SVGID_00000110431109146772375980000010127607304463417003_" gradientUnits="userSpaceOnUse" x1="2856.9814" y1="2261.624" x2="2824.322" y2="2312.0977">
				<stop  offset="0" style="stop-color:#311944"/>
				<stop  offset="1" style="stop-color:#A03976"/>
			</linearGradient>
			<path style="fill:url(#SVGID_00000110431109146772375980000010127607304463417003_);" d="M2862.64,2310.367
				c0,0-28.49-25.082-56.465-15.904c-3.99,1.311-11.03,4.055-14.749,11.127c-4.016,7.637-2.551,17.578,2.512,23.84
				c7.232,8.945,21.12,8.965,34.619-2.96c-1.192-0.311-9.055,3.444-11.016-3.16c0,0-0.925-3.115,0.084-6.252
				C2821.177,2305.994,2859.958,2310.275,2862.64,2310.367z"/>
		</g>
		<g>
			
				<linearGradient id="SVGID_00000183215241423393848940000017102235386370746800_" gradientUnits="userSpaceOnUse" x1="601.0955" y1="2567.8735" x2="664.2986" y2="2591.3489">
				<stop  offset="0" style="stop-color:#AB316D"/>
				<stop  offset="1" style="stop-color:#792D3D"/>
			</linearGradient>
			<path style="fill:url(#SVGID_00000183215241423393848940000017102235386370746800_);" d="M938.745,2743.758
				c-3.68,0-6.826-2.798-7.182-6.537c-6.325-66.365-27.963-129.42-60.927-177.552c-29.202-42.641-63.969-68.086-93.016-68.086
				c-0.033,0-0.063,0-0.097,0c-105.802,0.206-127.933,243.116-128.144,245.571c-0.342,3.975-3.825,6.918-7.816,6.578
				c-3.974-0.342-6.919-3.841-6.578-7.814c0.906-10.558,23.559-258.549,142.509-258.781c0.042,0,0.085,0,0.127,0
				c34.322,0,72.559,27.097,104.934,74.369c34.323,50.118,56.836,115.585,63.389,184.343c0.378,3.971-2.534,7.498-6.505,7.877
				C939.206,2743.748,938.974,2743.758,938.745,2743.758z"/>
			
				<linearGradient id="SVGID_00000097496113303299644690000005175363047311662010_" gradientUnits="userSpaceOnUse" x1="424.0639" y1="2785.0886" x2="600.1208" y2="3080.3225">
				<stop  offset="0" style="stop-color:#FF9085"/>
				<stop  offset="1" style="stop-color:#FB6FBB"/>
			</linearGradient>
			<path style="fill:url(#SVGID_00000097496113303299644690000005175363047311662010_);" d="M497.974,3243.689l139.276,70.513
				l84.387-258.956L582.59,2708.077l-39.428,9.667l-59.824,498.596C481.984,3227.626,487.832,3238.554,497.974,3243.689z"/>
			
				<linearGradient id="SVGID_00000087396463725515541480000002313454993117980322_" gradientUnits="userSpaceOnUse" x1="451.2846" y1="2768.8562" x2="627.3414" y2="3064.0898">
				<stop  offset="0" style="stop-color:#FF9085"/>
				<stop  offset="1" style="stop-color:#FB6FBB"/>
			</linearGradient>
			<path style="opacity:0.52;fill:url(#SVGID_00000087396463725515541480000002313454993117980322_);" d="M721.636,3055.245
				L582.59,2708.077l-23.256,5.702c-3.225,46.352-1.808,84.502,0.383,112.277c9.321,118.2,40.278,151.092,25.281,233.551
				c-12.469,68.563-39.7,77.869-37.32,123.998c2.593,50.24,37.633,92.31,79.294,125.394l10.277,5.202L721.636,3055.245z"/>
			
				<linearGradient id="SVGID_00000017500355765195779010000013111971643916237207_" gradientUnits="userSpaceOnUse" x1="730.5476" y1="2904.022" x2="1226.2148" y2="3285.9302">
				<stop  offset="0" style="stop-color:#FF9085"/>
				<stop  offset="1" style="stop-color:#FB6FBB"/>
			</linearGradient>
			<polygon style="fill:url(#SVGID_00000017500355765195779010000013111971643916237207_);" points="582.59,2708.077 
				1101.895,2708.077 1273.76,3262.913 637.249,3314.201 			"/>
			
				<linearGradient id="SVGID_00000082330834682321295000000002348056371326509961_" gradientUnits="userSpaceOnUse" x1="827.9453" y1="2458.9492" x2="878.5077" y2="2781.2849">
				<stop  offset="0" style="stop-color:#AB316D"/>
				<stop  offset="1" style="stop-color:#792D3D"/>
			</linearGradient>
			<path style="fill:url(#SVGID_00000082330834682321295000000002348056371326509961_);" d="M743.463,2755.632
				c-3.278,0-6.245-2.247-7.027-5.576c-1.476-6.292-35.595-154.962,12.514-227.924c13.789-20.911,33.053-33.679,57.257-37.948
				c124.363-21.913,200.932,245.194,204.131,256.575c1.078,3.841-1.159,7.828-5,8.907c-3.844,1.083-7.829-1.16-8.908-4.999
				c-0.749-2.659-76.12-265.959-187.713-246.256c-20.423,3.601-36.027,13.962-47.705,31.672
				c-44.719,67.823-10.856,215.194-10.509,216.675c0.911,3.883-1.5,7.77-5.383,8.681
				C744.564,2755.57,744.008,2755.632,743.463,2755.632z"/>
			<g style="opacity:0.3;">
				
					<linearGradient id="SVGID_00000122692560700361432940000000969532081366790798_" gradientUnits="userSpaceOnUse" x1="736.9547" y1="2895.7053" x2="1232.6222" y2="3277.6135">
					<stop  offset="0" style="stop-color:#FF9085"/>
					<stop  offset="1" style="stop-color:#FB6FBB"/>
				</linearGradient>
				<path style="fill:url(#SVGID_00000122692560700361432940000000969532081366790798_);" d="M1101.895,2708.077H844.272
					c-12.706,12.924-21.723,27.819-22.584,44.527c-4.049,78.501,176.418,104.29,193.823,211.881
					c12.555,77.613-64.699,167.166-133.629,207.065c-72.623,42.036-121.832,20.748-170.949,67.417
					c-21.581,20.505-34.723,46.146-42.538,72.725l605.367-48.778L1101.895,2708.077z"/>
			</g>
			
				<linearGradient id="SVGID_00000123408353305132922850000003921716691657774735_" gradientUnits="userSpaceOnUse" x1="716.2787" y1="2746.6057" x2="724.4163" y2="2749.6282">
				<stop  offset="0" style="stop-color:#AB316D"/>
				<stop  offset="1" style="stop-color:#792D3D"/>
			</linearGradient>
			<circle style="fill:url(#SVGID_00000123408353305132922850000003921716691657774735_);" cx="743.514" cy="2756.721" r="20.187"/>
			
				<linearGradient id="SVGID_00000130646572448879723960000010978059364859326092_" gradientUnits="userSpaceOnUse" x1="979.5386" y1="2744.7332" x2="987.6761" y2="2747.7559">
				<stop  offset="0" style="stop-color:#AB316D"/>
				<stop  offset="1" style="stop-color:#792D3D"/>
			</linearGradient>
			
				<circle style="fill:url(#SVGID_00000130646572448879723960000010978059364859326092_);" cx="1006.773" cy="2754.849" r="20.187"/>
		</g>
		<g>
			<g>
				<path style="fill:#97A6B7;" d="M1599.389,920.059l860.981,17.411l195.326,3.918c40.451,0.819,73.3-31.984,73.3-71.393V662.194
					c0-39.41-32.56-72.691-73.01-74.251l-1054.702-40.654c-13.635-0.526-28.082,2.072-39.426,7.126
					c-26.264,11.68-45.812,36.432-45.812,65.664V840.97C1516.046,882.862,1554.197,919.145,1599.389,920.059z"/>
				<g>
					<path style="fill:#D8DEE8;" d="M2744.76,661.694v207.966c0,39.44-32.843,70.865-73.361,70.042l-1055.85-21.444
						c-45.267-0.919-82.248-35.784-82.248-77.709V619.482c0-29.255,18.013-54.036,44.319-65.725
						c11.363-5.058,24.27-7.669,37.929-7.142l1055.85,40.718C2711.917,588.895,2744.76,622.254,2744.76,661.694z"/>
					<path style="fill:#FFFFFF;" d="M2736.238,659.46c0-34.356-30.815-63.303-66.108-64.65l-1057.585-40.253
						c-39.404-1.504-74.774,26.837-74.774,63.321v218.179c0,36.484,34.194,66.732,73.599,67.56l1057.72,22.167
						c35.294,0.742,67.148-26.512,67.148-60.868V659.46z"/>
					<g>
						<g>
							<g>
								
									<linearGradient id="SVGID_00000042711618731407679980000015674712172845080205_" gradientUnits="userSpaceOnUse" x1="1939.7228" y1="578.8899" x2="2109.0315" y2="1432.5845">
									<stop  offset="0" style="stop-color:#FFC444"/>
									<stop  offset="0.9964" style="stop-color:#F36F56"/>
								</linearGradient>
								<path style="fill:url(#SVGID_00000042711618731407679980000015674712172845080205_);" d="M1979.137,697.643l20.711,37.69
									l45.937,6.733c4.932,0.723,6.9,6.176,3.333,9.232l-33.162,28.416l7.853,40.904c0.848,4.414-4.341,7.744-8.786,5.634
									l-41.372-19.646l-41.789,19.121c-4.54,2.077-9.852-1.359-8.983-5.816l8.031-41.214l-34.126-29.755
									c-3.703-3.229-1.66-8.721,3.455-9.29l47.049-5.229l20.87-37.019C1970.405,693.416,1976.894,693.56,1979.137,697.643z"/>
								
									<linearGradient id="SVGID_00000150782644201453633040000004590795214412347292_" gradientUnits="userSpaceOnUse" x1="2107.1421" y1="554.0107" x2="2274.8652" y2="1399.712">
									<stop  offset="0" style="stop-color:#FFC444"/>
									<stop  offset="0.9964" style="stop-color:#F36F56"/>
								</linearGradient>
								<path style="fill:url(#SVGID_00000150782644201453633040000004590795214412347292_);" d="M2151.766,701.408l19.857,36.897
									l44.052,6.578c4.73,0.706,6.617,6.046,3.197,9.04l-31.803,27.837l7.53,40.054c0.813,4.322-4.163,7.584-8.425,5.518
									l-39.669-19.231l-40.061,18.728c-4.351,2.034-9.443-1.329-8.61-5.692l7.698-40.351l-32.708-29.121
									c-3.549-3.16-1.59-8.537,3.311-9.095l45.095-5.136l20.007-36.254C2143.393,697.273,2149.615,697.411,2151.766,701.408z"/>
								
									<linearGradient id="SVGID_00000106118365376264410740000016110554515664503227_" gradientUnits="userSpaceOnUse" x1="2267.7268" y1="530.1843" x2="2433.9338" y2="1368.24">
									<stop  offset="0" style="stop-color:#FFC444"/>
									<stop  offset="0.9964" style="stop-color:#F36F56"/>
								</linearGradient>
								<path style="fill:url(#SVGID_00000106118365376264410740000016110554515664503227_);" d="M2317.345,705.02l19.056,36.137
									l42.281,6.429c4.541,0.69,6.352,5.921,3.069,8.856l-30.526,27.281l7.228,39.238c0.78,4.235-3.996,7.431-8.086,5.407
									l-38.069-18.833l-38.437,18.35c-4.174,1.993-9.059-1.3-8.26-5.574l7.385-39.524l-31.376-28.513
									c-3.404-3.094-1.526-8.36,3.176-8.909l43.261-5.046l19.197-35.52C2309.312,700.973,2315.281,701.106,2317.345,705.02z"/>
								
									<linearGradient id="SVGID_00000137109779071848961520000016244179076193643393_" gradientUnits="userSpaceOnUse" x1="2421.8875" y1="507.3469" x2="2586.6421" y2="1338.08">
									<stop  offset="0" style="stop-color:#FFC444"/>
									<stop  offset="0.9964" style="stop-color:#F36F56"/>
								</linearGradient>
								<path style="fill:url(#SVGID_00000137109779071848961520000016244179076193643393_);" d="M2476.3,708.487l18.302,35.407
									l40.614,6.287c4.362,0.675,6.103,5.802,2.948,8.679l-29.324,26.746l6.942,38.456c0.75,4.15-3.838,7.283-7.767,5.3
									l-36.563-18.452l-36.909,17.988c-4.008,1.953-8.698-1.273-7.931-5.461l7.091-38.73l-30.124-27.929
									c-3.268-3.03-1.464-8.191,3.049-8.73l41.537-4.958l18.434-34.815C2468.585,704.524,2474.318,704.652,2476.3,708.487z"/>
								<path style="fill:#D8DEE8;" d="M2629.019,711.818l17.592,34.707l39.044,6.152c4.194,0.661,5.867,5.687,2.834,8.509
									l-28.192,26.233l6.674,37.704c0.72,4.069-3.69,7.142-7.467,5.198l-35.145-18.085l-35.472,17.639
									c-3.852,1.915-8.358-1.247-7.621-5.352l6.813-37.967l-28.946-27.37c-3.14-2.969-1.407-8.029,2.93-8.558l39.914-4.875
									l17.716-34.138C2621.604,707.936,2627.115,708.059,2629.019,711.818z"/>
							</g>
							
								<linearGradient id="SVGID_00000101792483463954845390000010258460127901899941_" gradientUnits="userSpaceOnUse" x1="2160.6309" y1="577.551" x2="2189.4934" y2="723.0837">
								<stop  offset="0" style="stop-color:#FF9085"/>
								<stop  offset="1" style="stop-color:#FB6FBB"/>
							</linearGradient>
							<path style="fill:url(#SVGID_00000101792483463954845390000010258460127901899941_);" d="M2446.578,660.79
								c0,7.802-5.644,13.909-13.747,13.637l-512.647-17.207c-8.54-0.287-16.718-7.025-16.718-15.044v-2.599
								c0-8.018,8.656-14.267,17.195-13.966l511.318,18.007c8.103,0.285,14.598,6.841,14.598,14.643V660.79z"/>
						</g>
						<g>
							
								<linearGradient id="SVGID_00000054240651098542521060000013753279088038388408_" gradientUnits="userSpaceOnUse" x1="1748.1221" y1="638.3224" x2="1554.8853" y2="1539.0012">
								<stop  offset="0" style="stop-color:#FF9085"/>
								<stop  offset="1" style="stop-color:#FB6FBB"/>
							</linearGradient>
							<path style="fill:url(#SVGID_00000054240651098542521060000013753279088038388408_);" d="M1728.251,856.564
								c-72.401-1.699-131.686-58.009-131.686-125.513s59.285-120.319,131.686-117.75c71.886,2.551,129.995,58.826,129.995,125.463
								S1800.137,858.251,1728.251,856.564z"/>
							<g>
								<defs>
									<path id="SVGID_00000029762813505466110620000010312292065157988760_" d="M1847.775,738.456
										c0,61.367-53.338,109.838-119.524,108.252c-66.622-1.596-120.952-53.24-120.952-115.341
										c0-62.101,54.33-110.542,120.952-108.21C1794.437,625.473,1847.775,677.088,1847.775,738.456z"/>
								</defs>
								
									<linearGradient id="SVGID_00000047021892785023241360000001475740324025586606_" gradientUnits="userSpaceOnUse" x1="1607.2991" y1="734.9111" x2="1847.7747" y2="734.9111">
									<stop  offset="0" style="stop-color:#FF9085"/>
									<stop  offset="1" style="stop-color:#FB6FBB"/>
								</linearGradient>
								
									<use xlink:href="#SVGID_00000029762813505466110620000010312292065157988760_"  style="overflow:visible;fill:url(#SVGID_00000047021892785023241360000001475740324025586606_);"/>
								<clipPath id="SVGID_00000054265232739104802160000008552588254516230585_">
									<use xlink:href="#SVGID_00000029762813505466110620000010312292065157988760_"  style="overflow:visible;"/>
								</clipPath>
								<g style="clip-path:url(#SVGID_00000054265232739104802160000008552588254516230585_);">
									<path style="fill:#FFFFFF;" d="M1785.805,712.801c0,29.4-25.596,52.516-57.26,51.628
										c-31.763-0.89-57.586-25.582-57.586-55.149c0-29.567,25.823-52.676,57.586-51.618
										C1760.209,658.716,1785.805,683.401,1785.805,712.801z"/>
									<path style="fill:#FFFFFF;" d="M1811.179,852.147c-3.838-39.831-39.416-71.418-82.928-72.604
										c-43.701-1.192-79.714,28.684-83.613,68.643L1811.179,852.147z"/>
								</g>
							</g>
						</g>
					</g>
					<g style="opacity:0.3;">
						<path style="fill:#D8DEE8;" d="M2477.328,935.76l-861.778-17.502c-45.267-0.919-82.248-35.784-82.248-77.709V619.482
							c0-29.255,18.013-54.036,44.319-65.725c2.797,1.828,5.575,3.704,8.299,5.643c0.592,0.419,1.183,0.855,1.774,1.291
							c26.265,19.016,48.541,43.302,61.727,74.297c1.354,3.212,2.635,6.487,3.792,9.857c0.018,0.05,0.036,0.1,0.054,0.15
							c6.299,18.211,13.057,35.47,20.521,51.669c23.245,50.344,53.33,90.16,98.027,115.015c9.266,5.154,19.158,9.679,29.741,13.499
							c3.841,1.389,7.785,2.699,11.816,3.895c43.514,13.065,98.005,15.368,167.445,4.58c5.133-0.797,10.195-1.594,15.289-2.375
							c2.855-0.447,5.692-0.878,8.547-1.309c31.94-4.875,63.195-9.362,93.878-12.493c2.128-0.203,4.273-0.422,6.4-0.624
							c9.254-0.888,18.431-1.632,27.582-2.215c6.904-0.448,13.77-0.799,20.614-1.071c1.456-0.042,2.913-0.101,4.368-0.127
							c7.293-0.227,14.547-0.342,21.762-0.298c4.593,0.024,9.184,0.096,13.756,0.216c11.598,0.336,23.149,1.023,34.618,2.141
							c12.816,1.247,25.549,3.02,38.215,5.428c5.239,0.983,10.476,2.077,15.692,3.282c62.871,14.521,124.317,45.102,185.577,101.847
							c3.28,3.043,6.575,6.149,9.853,9.348C2477.083,935.518,2477.214,935.631,2477.328,935.76z"/>
					</g>
				</g>
			</g>
			<g>
				<path style="fill:#97A6B7;" d="M2735.699,1669.656l-1058.074,16.74c-13.682,0.216-26.377,3.546-37.76,9.226
					c-26.353,13.132-44.163,38.929-44.163,68.209v221.261c0,41.962,36.941,76.269,82.285,74.72l862.781-29.476l194.475-6.638
					c40.584-1.386,73.409-35.991,73.409-75.464v-208.14C2808.653,1700.62,2776.281,1669.014,2735.699,1669.656z"/>
				<g>
					<path style="fill:#D8DEE8;" d="M2828.988,1740.402v208.301c0,39.504-32.949,72.77-73.598,74.156l-1059.366,36.098
						c-45.422,1.548-82.53-31.36-82.53-73.357v-221.446c0-29.305,18.074-55.11,44.471-68.253
						c11.402-5.686,24.353-9.005,38.059-9.222l1059.366-16.76C2796.039,1669.276,2828.988,1700.898,2828.988,1740.402z"/>
					<path style="fill:#FFFFFF;" d="M2815.894,1738.85c0-34.412-28.644-61.836-64.052-61.262l-1058.449,17.162
						c-39.537,0.641-72.345,30.797-72.345,67.342v218.544c0,36.545,32.776,65.091,72.313,63.772l1058.182-35.304
						c35.408-1.181,64.351-30.049,64.351-64.461V1738.85z"/>
					<g>
						<g>
							<g>
								
									<linearGradient id="SVGID_00000088129999811193608160000018430018787943828890_" gradientUnits="userSpaceOnUse" x1="2021.7748" y1="1701.6639" x2="2188.3398" y2="2541.5254">
									<stop  offset="0" style="stop-color:#FFC444"/>
									<stop  offset="0.9964" style="stop-color:#F36F56"/>
								</linearGradient>
								<path style="fill:url(#SVGID_00000088129999811193608160000018430018787943828890_);" d="M2060.844,1818.144l20.78,36.624
									l46.091,4.24c4.949,0.455,6.923,5.81,3.344,9.066l-33.274,30.272l7.879,40.544c0.85,4.375-4.356,7.994-8.815,6.122
									l-41.511-17.423l-41.93,21.432c-4.555,2.328-9.885-0.824-9.014-5.335l8.058-41.721l-34.241-27.945
									c-3.716-3.032-1.665-8.645,3.467-9.494l47.207-7.803l20.94-38.219C2052.082,1814.385,2058.592,1814.176,2060.844,1818.144z"
									/>
								
									<linearGradient id="SVGID_00000165234596949180189790000018199885608359255711_" gradientUnits="userSpaceOnUse" x1="2189.8542" y1="1667.7772" x2="2354.9187" y2="2500.0713">
									<stop  offset="0" style="stop-color:#FFC444"/>
									<stop  offset="0.9964" style="stop-color:#F36F56"/>
								</linearGradient>
								<path style="fill:url(#SVGID_00000165234596949180189790000018199885608359255711_);" d="M2234.049,1812.505l19.924,35.875
									l44.198,4.187c4.746,0.45,6.639,5.695,3.208,8.881l-31.909,29.617l7.555,39.71c0.815,4.285-4.177,7.824-8.453,5.986
									l-39.801-17.1l-40.194,20.943c-4.366,2.275-9.474-0.816-8.639-5.232l7.723-40.838l-32.817-27.386
									c-3.561-2.971-1.595-8.465,3.322-9.291l45.246-7.603l20.073-37.405C2225.649,1808.819,2231.891,1808.619,2234.049,1812.505z
									"/>
								
									<linearGradient id="SVGID_00000074421400633020735510000017488403529026067355_" gradientUnits="userSpaceOnUse" x1="2351.064" y1="1635.2924" x2="2514.6917" y2="2460.343">
									<stop  offset="0" style="stop-color:#FFC444"/>
									<stop  offset="0.9964" style="stop-color:#F36F56"/>
								</linearGradient>
								<path style="fill:url(#SVGID_00000074421400633020735510000017488403529026067355_);" d="M2400.177,1807.097l19.119,35.157
									l42.42,4.135c4.556,0.444,6.373,5.585,3.079,8.703l-30.626,28.99l7.251,38.909c0.783,4.199-4.009,7.661-8.113,5.857
									l-38.194-16.789l-38.563,20.476c-4.188,2.224-9.089-0.808-8.288-5.133l7.409-39.992l-31.479-26.849
									c-3.416-2.913-1.531-8.291,3.187-9.097l43.405-7.412l19.26-36.625C2392.117,1803.48,2398.107,1803.288,2400.177,1807.097z"
									/>
								<path style="fill:#D8DEE8;" d="M2559.655,1801.904l18.362,34.468l40.747,4.084c4.376,0.439,6.122,5.479,2.958,8.533
									l-29.42,28.389l6.965,38.14c0.752,4.116-3.851,7.504-7.793,5.732l-36.683-16.489l-37.031,20.03
									c-4.021,2.175-8.726-0.801-7.957-5.037l7.114-39.18l-30.223-26.333c-3.279-2.857-1.469-8.125,3.059-8.911l41.673-7.231
									l18.495-35.877C2551.914,1798.356,2557.666,1798.171,2559.655,1801.904z"/>
								<path style="fill:#D8DEE8;" d="M2712.872,1796.916l17.649,33.804l39.171,4.033c4.208,0.433,5.886,5.376,2.844,8.369
									l-28.283,27.812l6.696,37.401c0.723,4.036-3.702,7.354-7.491,5.613l-35.259-16.198l-35.587,19.602
									c-3.864,2.129-8.385-0.793-7.646-4.945l6.835-38.4l-29.04-25.836c-3.15-2.803-1.412-7.965,2.939-8.732l40.044-7.058
									l17.774-35.159C2705.432,1793.432,2710.961,1793.255,2712.872,1796.916z"/>
							</g>
							
								<linearGradient id="SVGID_00000145031669868332343790000011657973620833193879_" gradientUnits="userSpaceOnUse" x1="2248.3469" y1="1700.5587" x2="2271.8018" y2="1818.823">
								<stop  offset="0" style="stop-color:#FF9085"/>
								<stop  offset="1" style="stop-color:#FB6FBB"/>
							</linearGradient>
							<path style="fill:url(#SVGID_00000145031669868332343790000011657973620833193879_);" d="M2529.855,1755.724
								c0,7.815-5.672,14.253-13.802,14.422l-511.635,10.636c-8.568,0.178-14.055-6.198-14.055-14.23v-2.604
								c0-8.032,5.962-14.683,14.53-14.847l511.66-9.807c8.129-0.156,13.301,6.082,13.301,13.897V1755.724z"/>
						</g>
						<g>
							
								<linearGradient id="SVGID_00000049181218292073783040000008989141528839161269_" gradientUnits="userSpaceOnUse" x1="1829.2784" y1="1771.2003" x2="1633.2202" y2="2685.0293">
								<stop  offset="0" style="stop-color:#FF9085"/>
								<stop  offset="1" style="stop-color:#FB6FBB"/>
							</linearGradient>
							<path style="fill:url(#SVGID_00000049181218292073783040000008989141528839161269_);" d="M1809.109,1991.012
								c-72.647,2.246-132.135-50.927-132.135-118.547c0-67.619,59.488-123.756,132.135-125.129
								c72.13-1.363,130.436,51.839,130.436,118.589C1939.545,1932.675,1881.24,1988.782,1809.109,1991.012z"/>
							<g>
								<defs>
									<path id="SVGID_00000050632256480595213130000014408436360082342546_" d="M1929.038,1866.187
										c0,61.471-53.518,112.932-119.929,114.953c-66.849,2.034-121.364-46.736-121.364-108.943
										c0-62.207,54.516-113.692,121.364-114.988C1875.52,1755.921,1929.038,1804.716,1929.038,1866.187z"/>
								</defs>
								
									<linearGradient id="SVGID_00000124144552672663989220000006992096464840563901_" gradientUnits="userSpaceOnUse" x1="1687.7449" y1="1869.1923" x2="1929.0382" y2="1869.1923">
									<stop  offset="0" style="stop-color:#FF9085"/>
									<stop  offset="1" style="stop-color:#FB6FBB"/>
								</linearGradient>
								
									<use xlink:href="#SVGID_00000050632256480595213130000014408436360082342546_"  style="overflow:visible;fill:url(#SVGID_00000124144552672663989220000006992096464840563901_);"/>
								<clipPath id="SVGID_00000121276790985394530090000004843181111980683396_">
									<use xlink:href="#SVGID_00000050632256480595213130000014408436360082342546_"  style="overflow:visible;"/>
								</clipPath>
								<g style="clip-path:url(#SVGID_00000121276790985394530090000004843181111980683396_);">
									<path style="fill:#FFFFFF;" d="M1866.859,1843.867c0,29.449-25.683,54-57.454,54.838
										c-31.871,0.84-57.782-22.486-57.782-52.104s25.91-54.173,57.782-54.845
										C1841.176,1791.085,1866.859,1814.417,1866.859,1843.867z"/>
									<path style="fill:#FFFFFF;" d="M1892.319,1982.066c-3.851-39.689-39.549-69.389-83.21-68.206
										c-43.849,1.189-79.985,33.079-83.898,73.319L1892.319,1982.066z"/>
								</g>
							</g>
						</g>
					</g>
					<g style="opacity:0.3;">
						<path style="fill:#D8DEE8;" d="M2560.686,2029.493l-864.662,29.464c-45.422,1.548-82.53-31.36-82.53-73.357v-221.446
							c0-29.305,18.074-55.11,44.471-68.253c2.806,1.678,5.594,3.406,8.328,5.2c0.594,0.388,1.187,0.792,1.78,1.197
							c26.355,17.616,48.707,40.73,61.938,71.059c1.358,3.144,2.644,6.355,3.805,9.667c0.018,0.049,0.037,0.098,0.054,0.148
							c6.321,17.898,13.101,34.818,20.591,50.638c23.324,49.163,53.511,87.406,98.36,109.866c9.298,4.657,19.223,8.651,29.842,11.9
							c3.854,1.182,7.812,2.279,11.856,3.257c43.661,10.714,98.336,10.05,168.01-4.542c5.15-1.078,10.229-2.153,15.34-3.212
							c2.865-0.604,5.711-1.19,8.575-1.777c32.047-6.625,63.407-12.823,94.192-17.632c2.135-0.319,4.287-0.655,6.422-0.974
							c9.285-1.394,18.492-2.64,27.674-3.723c6.927-0.825,13.816-1.551,20.683-2.197c1.461-0.121,2.923-0.259,4.383-0.365
							c7.318-0.625,14.596-1.136,21.835-1.485c4.608-0.227,9.215-0.404,13.802-0.534c11.636-0.296,23.225-0.237,34.733,0.257
							c12.858,0.551,25.634,1.632,38.341,3.354c5.257,0.699,10.511,1.509,15.744,2.432c63.078,11.117,124.727,38.398,186.188,91.896
							c3.291,2.869,6.596,5.8,9.885,8.826C2560.44,2029.264,2560.572,2029.37,2560.686,2029.493z"/>
					</g>
				</g>
			</g>
			<g>
				<path style="fill:#97A6B7;" d="M3097.04,1139.262l-1010.667-10.291c-13.051-0.133-26.857,2.778-37.714,8.039
					c-25.133,12.161-43.813,36.882-43.813,65.476v216.068c0,40.977,36.493,75.458,79.743,75.107l824.791-6.703l187.362-1.51
					c38.807-0.316,70.364-33.308,70.364-71.912v-203.555C3167.106,1171.375,3135.847,1139.657,3097.04,1139.262z"/>
				<g>
					<path style="fill:#D8DEE8;" d="M3183.503,1209.892v203.701c0,38.631-31.509,70.319-70.377,70.633l-1011.691,8.16
						c-43.323,0.349-78.712-32.736-78.712-73.748v-216.254c0-28.618,17.237-53.363,42.412-65.533
						c10.875-5.266,23.227-8.181,36.3-8.048l1011.691,10.308C3151.994,1139.506,3183.503,1171.261,3183.503,1209.892z"/>
					<path style="fill:#FFFFFF;" d="M3170.727,1208.074c0-33.654-27.265-61.21-61.124-61.541l-1008.833-9.901
						c-37.71-0.369-66.957,28.254-66.957,63.941v213.413c0,35.687,29.314,64.399,67.023,64.122l1009.432-7.408
						c33.858-0.249,60.459-27.717,60.459-61.371V1208.074z"/>
					<g>
						<g>
							<g>
								
									<linearGradient id="SVGID_00000143613137729023284400000007141863728496157360_" gradientUnits="userSpaceOnUse" x1="2411.3699" y1="1151.645" x2="2575.2861" y2="1978.1504">
									<stop  offset="0" style="stop-color:#FFC444"/>
									<stop  offset="0.9964" style="stop-color:#F36F56"/>
								</linearGradient>
								<path style="fill:url(#SVGID_00000143613137729023284400000007141863728496157360_);" d="M2449.559,1266.436l19.838,36.311
									l44.005,5.313c4.725,0.57,6.61,5.853,3.193,8.943l-31.768,28.733l7.522,39.816c0.812,4.297-4.159,7.7-8.416,5.757
									l-39.629-18.081l-40.025,19.871c-4.348,2.158-9.435-1.057-8.604-5.442l7.692-40.556l-32.683-28.172
									c-3.546-3.057-1.589-8.489,3.309-9.187l45.06-6.425l19.989-36.81C2441.195,1262.542,2447.41,1262.503,2449.559,1266.436z"/>
								
									<linearGradient id="SVGID_00000085947401450603643320000013360091153314993586_" gradientUnits="userSpaceOnUse" x1="2571.6907" y1="1122.7241" x2="2734.1399" y2="1941.8324">
									<stop  offset="0" style="stop-color:#FFC444"/>
									<stop  offset="0.9964" style="stop-color:#F36F56"/>
								</linearGradient>
								<path style="fill:url(#SVGID_00000085947401450603643320000013360091153314993586_);" d="M2614.94,1265.315l19.028,35.565
									l42.214,5.214c4.533,0.56,6.342,5.735,3.063,8.761l-30.477,28.134l7.216,39c0.779,4.209-3.99,7.54-8.074,5.635
									l-38.011-17.725l-38.384,19.442c-4.169,2.112-9.047-1.039-8.25-5.333l7.375-39.71l-31.336-27.595
									c-3.4-2.994-1.523-8.312,3.172-8.995l43.205-6.281l19.17-36.044C2606.917,1261.5,2612.879,1261.463,2614.94,1265.315z"/>
								
									<linearGradient id="SVGID_00000168115366827237735260000010793442560231152550_" gradientUnits="userSpaceOnUse" x1="2725.52" y1="1094.9982" x2="2886.5649" y2="1907.0255">
									<stop  offset="0" style="stop-color:#FFC444"/>
									<stop  offset="0.9964" style="stop-color:#F36F56"/>
								</linearGradient>
								<path style="fill:url(#SVGID_00000168115366827237735260000010793442560231152550_);" d="M2773.625,1264.24l18.266,34.849
									l40.531,5.119c4.353,0.55,6.09,5.621,2.942,8.586l-29.263,27.559l6.928,38.217c0.748,4.124-3.83,7.386-7.751,5.518
									l-36.491-17.383l-36.841,19.031c-4.001,2.067-8.682-1.022-7.917-5.228l7.077-38.898l-30.071-27.042
									c-3.263-2.934-1.462-8.142,3.044-8.81l41.463-6.143l18.4-35.309C2765.925,1260.501,2771.647,1260.465,2773.625,1264.24z"/>
								
									<linearGradient id="SVGID_00000026139752734224576150000004310853350630103994_" gradientUnits="userSpaceOnUse" x1="2873.2444" y1="1068.3958" x2="3032.9436" y2="1873.6368">
									<stop  offset="0" style="stop-color:#FFC444"/>
									<stop  offset="0.9964" style="stop-color:#F36F56"/>
								</linearGradient>
								<path style="fill:url(#SVGID_00000026139752734224576150000004310853350630103994_);" d="M2926.014,1263.207l17.549,34.162
									l38.947,5.027c4.183,0.54,5.852,5.512,2.827,8.417l-28.12,27.007l6.657,37.465c0.719,4.043-3.68,7.239-7.448,5.406
									l-35.06-17.054l-35.389,18.637c-3.843,2.024-8.339-1.005-7.604-5.127l6.798-38.12l-28.881-26.51
									c-3.133-2.876-1.404-7.98,2.923-8.633l39.824-6.01l17.675-34.604C2918.616,1259.541,2924.114,1259.507,2926.014,1263.207z"
									/>
								
									<linearGradient id="SVGID_00000044176661262546178110000005441299558078071218_" gradientUnits="userSpaceOnUse" x1="3015.2202" y1="1042.8478" x2="3173.6284" y2="1841.58">
									<stop  offset="0" style="stop-color:#FFC444"/>
									<stop  offset="0.9964" style="stop-color:#F36F56"/>
								</linearGradient>
								<path style="fill:url(#SVGID_00000044176661262546178110000005441299558078071218_);" d="M3072.474,1262.214l16.874,33.501
									l37.453,4.938c4.023,0.531,5.628,5.407,2.719,8.255l-27.043,26.477l6.402,36.742c0.691,3.965-3.54,7.097-7.163,5.298
									l-33.711-16.737l-34.022,18.259c-3.694,1.983-8.016-0.989-7.31-5.03l6.535-37.371l-27.76-25.999
									c-3.011-2.82-1.349-7.823,2.81-8.463l38.28-5.884l16.992-33.926C3065.361,1258.619,3070.647,1258.585,3072.474,1262.214z"/>
							</g>
							
								<linearGradient id="SVGID_00000042710654716793034910000013343232713391275941_" gradientUnits="userSpaceOnUse" x1="2625.9307" y1="1151.1935" x2="2651.0337" y2="1277.7683">
								<stop  offset="0" style="stop-color:#FF9085"/>
								<stop  offset="1" style="stop-color:#FB6FBB"/>
							</linearGradient>
							<path style="fill:url(#SVGID_00000042710654716793034910000013343232713391275941_);" d="M2899.171,1217.276
								c0,7.639-6.239,13.804-14.007,13.763l-491.286-2.559c-8.178-0.043-16.094-6.42-16.094-14.267v-2.544
								c0-7.847,7.94-14.178,16.118-14.122l490.628,3.338c7.768,0.053,14.641,6.276,14.641,13.915V1217.276z"/>
						</g>
						<g>
							
								<linearGradient id="SVGID_00000111157747221073912790000011582570506469550014_" gradientUnits="userSpaceOnUse" x1="2228.8972" y1="1214.9098" x2="2038.8445" y2="2100.7473">
								<stop  offset="0" style="stop-color:#FF9085"/>
								<stop  offset="1" style="stop-color:#FB6FBB"/>
							</linearGradient>
							<path style="fill:url(#SVGID_00000111157747221073912790000011582570506469550014_);" d="M2209.314,1428.912
								c-69.306,0.34-126.049-53.108-126.049-119.147s56.743-119.362,126.049-118.869c68.824,0.489,124.465,53.936,124.465,119.145
								C2333.779,1375.25,2278.138,1428.574,2209.314,1428.912z"/>
							<g>
								<defs>
									<path id="SVGID_00000078011609768444047090000001440990499591388343_" d="M2323.752,1310.03
										c0,60.052-51.072,108.959-114.438,109.239c-63.774,0.282-115.776-48.739-115.776-109.492s52.001-109.66,115.776-109.237
										C2272.68,1200.959,2323.752,1249.979,2323.752,1310.03z"/>
								</defs>
								
									<linearGradient id="SVGID_00000175307921801669047790000005794420275104619185_" gradientUnits="userSpaceOnUse" x1="2093.5381" y1="1309.9034" x2="2323.752" y2="1309.9034">
									<stop  offset="0" style="stop-color:#FF9085"/>
									<stop  offset="1" style="stop-color:#FB6FBB"/>
								</linearGradient>
								
									<use xlink:href="#SVGID_00000078011609768444047090000001440990499591388343_"  style="overflow:visible;fill:url(#SVGID_00000175307921801669047790000005794420275104619185_);"/>
								<clipPath id="SVGID_00000157306514543703443470000017482523774974269100_">
									<use xlink:href="#SVGID_00000078011609768444047090000001440990499591388343_"  style="overflow:visible;"/>
								</clipPath>
								<g style="clip-path:url(#SVGID_00000157306514543703443470000017482523774974269100_);">
									<path style="fill:#FFFFFF;" d="M2264.416,1286.649c0,28.767-24.506,52.097-54.82,52.107
										c-30.407,0.011-55.125-23.431-55.125-52.358c0-28.927,24.718-52.256,55.125-52.107
										C2239.909,1234.441,2264.416,1257.882,2264.416,1286.649z"/>
									<path style="fill:#FFFFFF;" d="M2288.71,1422.296c-3.675-38.869-37.739-68.79-79.397-68.744
										c-41.834,0.046-76.305,30.274-80.038,69.476L2288.71,1422.296z"/>
								</g>
							</g>
						</g>
					</g>
					<g style="opacity:0.3;">
						<path style="fill:#D8DEE8;" d="M2927,1485.727l-825.565,6.658c-43.323,0.349-78.712-32.736-78.712-73.748v-216.254
							c0-28.618,17.237-53.363,42.412-65.533c2.676,1.71,5.336,3.467,7.943,5.288c0.566,0.394,1.132,0.804,1.698,1.214
							c25.137,17.869,46.458,41.007,59.079,70.962c1.296,3.105,2.522,6.274,3.629,9.538c0.018,0.048,0.035,0.097,0.052,0.146
							c6.03,17.641,12.498,34.339,19.642,49.979c22.25,48.61,51.051,86.731,93.843,109.812c8.872,4.786,18.343,8.94,28.475,12.385
							c3.677,1.253,7.454,2.425,11.314,3.484c41.667,11.58,93.85,12.325,160.358-0.155c4.916-0.922,9.766-1.843,14.645-2.747
							c2.735-0.517,5.453-1.018,8.187-1.518c30.596-5.656,60.538-10.914,89.934-14.829c2.039-0.258,4.094-0.531,6.132-0.789
							c8.866-1.126,17.659-2.108,26.427-2.933c6.615-0.63,13.194-1.164,19.752-1.62c1.395-0.082,2.791-0.179,4.186-0.245
							c6.989-0.424,13.94-0.738,20.853-0.895c4.401-0.104,8.801-0.16,13.182-0.17c11.114,0.007,22.183,0.359,33.175,1.136
							c12.282,0.866,24.486,2.248,36.625,4.254c5.021,0.817,10.041,1.743,15.04,2.778c60.263,12.474,119.168,40.714,177.903,94.583
							c3.145,2.889,6.304,5.839,9.447,8.881C2926.765,1485.496,2926.89,1485.604,2927,1485.727z"/>
					</g>
				</g>
			</g>
		</g>
	</g>
</g>
</svg>
